<!--?xml version="1.0" standalone="no"?-->
              <svg id="sw-js-blob-svg" viewBox="0 0 100 100" xmlns="http://www.w3.org/2000/svg" version="1.1">
                    <defs> 
                        <linearGradient id="sw-gradient" x1="0" x2="1" y1="1" y2="0">
                            <stop id="stop1" stop-color="rgba(248, 117, 55, 1)" offset="0%"></stop>
                            <stop id="stop2" stop-color="rgba(251, 168, 31, 1)" offset="100%"></stop>
                        </linearGradient>
                    </defs>
                <path fill="url(#sw-gradient)" d="M21.9,-24.8C28.5,-20.5,34.1,-13.8,36.8,-5.4C39.5,2.9,39.3,12.7,34.5,18.8C29.7,25,20.3,27.3,11.5,29.7C2.8,32,-5.3,34.3,-13.5,33.1C-21.8,31.9,-30.2,27.1,-33.8,20C-37.4,12.8,-36.1,3.3,-33.3,-4.7C-30.4,-12.7,-26,-19.2,-20.2,-23.7C-14.4,-28.1,-7.2,-30.5,0.2,-30.8C7.6,-31.1,15.3,-29.2,21.9,-24.8Z" width="100%" height="100%" transform="translate(50 50)" stroke-width="0" style="transition: all 0.3s ease 0s;"></path>
              </svg>