<svg width="297" height="153" viewBox="0 0 297 153" fill="none" xmlns="http://www.w3.org/2000/svg">
<path d="M267.546 151.395C267.465 151.552 267.383 151.709 267.3 151.866L16.737 151.79C16.737 151.79 16.6173 151.662 16.395 151.41L16.3813 151.395C9.88248 143.941 3.98569 132.917 1.47964 122.018C-2.1745 106.238 0.909576 90.7578 11.0648 76.4854C22.2382 60.7771 37.4979 48.3003 56.846 48.5487H56.8643C67.1837 48.686 77.0619 52.4562 85.7098 58.2228C93.9268 63.7035 108.171 57.9766 116.759 52.0978C126.818 45.2458 135.333 35.2178 141.881 24.9891C165.007 -11.0598 219.353 -4.69213 245.024 22.4393C258.654 36.8182 264.013 56.332 258.243 78.8118C257.16 83.0312 256.553 87.4321 256.81 91.7934C258.175 115.578 283.419 120.859 267.546 151.395Z" fill="#F0F7FF"/>
<g opacity="0.5">
<path d="M258.241 78.8088C257.808 80.4816 257.461 82.1753 257.202 83.8834C257.022 85.0986 256.896 86.2707 256.826 87.3996V87.4734H158.506V22.4397H245.022C246.172 23.6495 247.269 24.9089 248.314 26.2179C258.848 39.3934 263.791 57.1933 258.241 78.8088Z" fill="#D8E8FC"/>
<path d="M258.241 78.8088C257.808 80.4816 257.461 82.1753 257.202 83.8834H162.59V26.2179H248.314C258.849 39.3934 263.791 57.1933 258.241 78.8088Z" fill="#B1D2F9"/>
<path d="M256.807 91.7897C256.724 90.354 256.729 88.9147 256.821 87.4796V87.4058H156.111C155.122 87.4108 154.174 87.7986 153.468 88.487C152.762 89.1753 152.354 90.1102 152.329 91.0933C152.329 91.1319 152.329 91.1693 152.329 91.2067V91.792L256.807 91.7897Z" fill="#B1D2F9"/>
</g>
<path d="M167.481 80.6173C167.481 80.6173 164.362 79.4286 162.563 80.9269C160.764 82.4253 159.531 90.1359 160.148 91.5742C160.765 93.0124 162.563 93.8688 162.563 93.8688C162.563 93.8688 162.187 93.0215 162.323 92.3625C162.323 92.3625 162.838 94.0287 164.208 94.3463C165.579 94.6639 170.46 94.2714 171.404 93.8688C172.495 93.4049 173.114 92.9239 173.391 91.5742C173.668 90.2244 174.765 78.241 167.481 80.6173Z" fill="#B5493F"/>
<path d="M182.574 151.381C182.55 151.383 182.526 151.383 182.502 151.381C182.412 151.385 182.324 151.359 182.251 151.307C182.178 151.255 182.125 151.18 182.099 151.094L177.53 131.44L177.198 130.009L178.76 129.94L179.271 132.62L182.794 151.108C182.798 151.14 182.796 151.174 182.788 151.205C182.779 151.237 182.764 151.266 182.743 151.292C182.722 151.318 182.697 151.339 182.668 151.354C182.639 151.369 182.607 151.379 182.574 151.381Z" fill="#E5BD9E"/>
<path d="M159.353 130.012L158.6 133.247L154.45 151.099C154.425 151.185 154.371 151.26 154.298 151.312C154.225 151.364 154.136 151.39 154.046 151.386C154.022 151.387 153.998 151.387 153.974 151.386C153.942 151.383 153.911 151.374 153.882 151.358C153.854 151.343 153.828 151.322 153.808 151.297C153.788 151.272 153.773 151.243 153.764 151.212C153.755 151.181 153.753 151.148 153.757 151.116L157.511 131.405L157.791 129.948L159.353 130.012Z" fill="#E5BD9E"/>
<path d="M159.353 130.013L158.6 133.247C158.578 132.876 158.467 132.515 158.278 132.194C158.089 131.874 157.826 131.602 157.511 131.401L157.791 129.944L159.353 130.013Z" fill="#CC9E7F"/>
<path d="M179.268 132.623C178.495 131.489 177.558 131.489 177.528 131.445L177.196 130.014L178.758 129.945L179.268 132.623Z" fill="#CC9E7F"/>
<path d="M156.245 130.154H178.875C179.412 130.154 179.927 129.942 180.307 129.564C180.686 129.186 180.9 128.674 180.9 128.14V126.522C180.9 125.988 180.686 125.475 180.306 125.097C179.926 124.719 179.411 124.507 178.874 124.507H156.245C155.708 124.507 155.193 124.719 154.813 125.097C154.433 125.475 154.219 125.988 154.219 126.522V128.141C154.22 128.405 154.272 128.667 154.374 128.912C154.476 129.156 154.625 129.378 154.813 129.565C155.001 129.752 155.225 129.9 155.47 130.001C155.716 130.102 155.979 130.154 156.245 130.154Z" fill="#C65447"/>
<path d="M175.479 117.859C174.808 114.145 172.856 109.919 172.856 109.919C174.277 103.998 172.827 97.3398 172.827 97.3398C172.045 97.1313 171.25 96.9796 170.446 96.8861C170.346 96.3575 170.059 94.7685 169.937 93.4005C169.924 93.241 169.912 93.0856 169.902 92.9344C169.877 92.5901 169.875 92.2445 169.897 91.8999L168.897 91.9657L164.777 92.2391L164.603 92.2504C164.603 92.2504 164.628 92.6179 164.634 93.1726C164.647 94.1673 164.598 95.7609 164.239 96.9031C162.467 97.0857 161.267 97.3432 161.267 97.3432C160.107 97.5394 160.355 104.723 162.521 110.307C163.519 112.877 160.697 116.855 160.697 117.861C160.697 118.867 175.722 119.2 175.479 117.859Z" fill="#FFB27D"/>
<path d="M169.933 93.3982C169.546 93.8519 168.565 94.824 167.329 94.8455C165.711 94.8739 164.63 93.1702 164.63 93.1702C164.656 92.8562 164.704 92.5443 164.774 92.2367L168.893 91.9634C169.244 92.2694 169.58 92.5927 169.899 92.932C169.909 93.0825 169.92 93.2379 169.933 93.3982Z" fill="#EF9E67"/>
<path d="M167.301 93.8828C165.059 93.8828 163.225 92.0396 163.225 89.787V86.374C163.223 85.6466 163.511 84.9482 164.025 84.4314C164.54 83.9145 165.239 83.6212 165.97 83.6155H168.442C169.173 83.6212 169.872 83.9145 170.386 84.4314C170.901 84.9482 171.189 85.6466 171.187 86.374V89.9764C171.189 91.0062 170.782 91.995 170.054 92.727C169.325 93.4589 168.336 93.8744 167.301 93.8828Z" fill="#FFB27D"/>
<path d="M165.954 91.3387C165.954 91.3387 166.038 91.8809 167.361 91.8991C167.361 91.8991 168.471 91.9138 168.481 91.3319C168.481 91.3274 167.442 90.8294 165.954 91.3387Z" fill="white"/>
<path d="M156.22 124.506C156.22 124.506 158.956 118.128 161.473 116.881C163.989 115.635 173.98 116.742 175.48 117.859C176.981 118.976 178.901 124.506 178.901 124.506H156.22Z" fill="#22356B"/>
<path d="M158.72 124.505C158.72 124.505 159.698 120.679 161.874 120.512C164.049 120.346 166.953 122.369 167.985 121.824C169.017 121.278 170.988 119.913 172.817 120.262C174.646 120.61 177.397 124.505 177.397 124.505H158.72Z" fill="#1B2E59"/>
<path d="M170.647 148.351L168.059 148.534C168.059 148.534 166.606 144.451 164.98 139.687C164.83 139.241 164.675 138.79 164.524 138.334C163.182 134.364 161.809 130.14 161.104 127.527C160.935 126.901 160.809 126.332 160.721 125.815C159.938 121.299 161.955 120.802 162.431 120.684C162.968 120.553 166.207 118.824 168.408 124.654C169.151 126.616 170.36 132.075 170.321 137.244C170.295 142.211 170.647 148.351 170.647 148.351Z" fill="#FFB27D"/>
<path d="M164.986 139.689C164.835 139.244 164.68 138.792 164.53 138.336C163.188 134.366 161.814 130.142 161.109 127.529C160.94 126.903 160.814 126.335 160.726 125.817C160.793 126.001 165.134 137.707 168.84 138.379C171.219 138.811 167.789 139.354 164.986 139.689Z" fill="#EF9E67"/>
<path d="M170.647 148.351L168.052 148.918L167.391 149.064C167.391 149.064 166.321 143.655 164.527 138.335C165.67 138.396 166.816 138.286 167.925 138.007C168.669 137.828 169.392 137.574 170.085 137.252C170.615 142.757 170.647 148.351 170.647 148.351Z" fill="#E9F3FE"/>
<path d="M168.054 148.919L167.393 149.066C167.393 149.066 166.323 143.657 164.529 138.337C165.672 138.398 166.817 138.288 167.927 138.009C167.927 138.009 167.058 145.989 168.054 148.919Z" fill="#C7DCF2"/>
<path d="M171.226 149.783C171.26 149.906 171.29 150.019 171.315 150.124C171.329 150.178 171.332 150.235 171.324 150.29C171.315 150.346 171.296 150.399 171.266 150.447C171.236 150.495 171.198 150.537 171.152 150.569C171.106 150.602 171.053 150.625 170.998 150.637L167.983 151.287C167.875 151.31 167.763 151.29 167.671 151.232C167.579 151.173 167.513 151.081 167.489 150.974C167.446 150.783 167.414 150.589 167.392 150.395C167.339 149.954 167.339 149.508 167.392 149.068C167.399 149.005 167.421 148.945 167.456 148.892C167.49 148.839 167.536 148.795 167.59 148.763C168.986 147.946 170.018 148.082 170.402 148.174C170.453 148.186 170.501 148.208 170.543 148.239C170.586 148.27 170.621 148.309 170.648 148.354C170.898 148.805 171.093 149.285 171.226 149.783Z" fill="#22356B"/>
<path d="M170.507 148.278C170.507 148.278 170.01 147.753 168.975 147.861C168.675 147.892 168.387 147.996 168.137 148.164C167.887 148.331 167.682 148.558 167.541 148.823L167.405 149.009C167.423 148.969 167.829 147.814 168.958 147.695C169.273 147.652 169.594 147.69 169.89 147.804C170.186 147.919 170.448 148.107 170.651 148.35L170.507 148.278Z" fill="#22356B"/>
<path d="M171.226 149.783C171.26 149.906 171.29 150.019 171.315 150.124C171.329 150.178 171.332 150.235 171.324 150.29C171.315 150.346 171.296 150.399 171.266 150.447C171.236 150.495 171.198 150.537 171.152 150.569C171.106 150.602 171.053 150.625 170.998 150.637L167.983 151.287C167.875 151.31 167.763 151.29 167.671 151.232C167.579 151.173 167.513 151.081 167.489 150.974C167.446 150.783 167.414 150.589 167.392 150.395C167.392 150.395 167.734 151.036 169.568 150.615C170.673 150.357 171.079 150.014 171.226 149.783Z" fill="#22356B"/>
<path d="M179.998 113.001L175.818 113.069C175.498 112.338 174.94 109.903 174.388 108.433C174.594 109.331 174.795 110.258 174.984 111.169C175.721 114.706 176.28 118.031 176.193 118.744C175.995 120.365 169.688 119.635 168.062 119.245C166.436 118.855 162.74 119.747 159.782 119.691C158.082 119.659 158.603 114.9 159.352 110.868C159.53 109.901 159.724 108.974 159.903 108.167C158.948 110.077 158.513 112.433 158.282 113.069C158.282 113.069 154.199 112.805 154.198 112.794C154.059 112.068 155.597 100.587 158.724 98.2418C159.351 97.7432 160.074 97.3775 160.848 97.1674C161.623 96.9573 162.432 96.9072 163.226 97.0202C163.226 97.0202 164.253 98.8566 167.217 98.995C168.07 99.0429 168.924 98.8963 169.711 98.5662C170.499 98.2362 171.201 97.7315 171.763 97.0906C171.763 97.0906 174.24 97.1518 175.241 98.2418C176.242 99.3319 178.461 103.239 179.998 113.001Z" fill="#2B478B"/>
<path d="M176.19 118.743C175.992 120.365 169.684 119.634 168.059 119.244C166.433 118.854 162.736 119.747 159.779 119.69C158.079 119.658 158.6 114.899 159.349 110.868C159.349 110.868 162.554 116.506 166.549 116.468C170.544 116.429 174.986 111.168 174.986 111.168C175.721 114.705 176.277 118.031 176.19 118.743Z" fill="#233F77"/>
<path d="M164.475 95.8233C164.475 95.8233 165.865 98.5671 167.219 98.9992C167.219 98.9992 165.293 99.7308 162.486 96.9678C162.688 96.6204 162.978 96.3319 163.327 96.131C163.676 95.9302 164.072 95.824 164.475 95.8233Z" fill="#E6F1FF"/>
<path d="M170.311 95.8233C170.311 95.8233 168.572 98.5671 167.219 98.9992C167.219 98.9992 169.437 99.8908 172.244 97.1277C172.244 97.1243 171.741 95.854 170.311 95.8233Z" fill="#E6F1FF"/>
<path d="M167.023 98.9871C167.024 98.9439 167.038 98.9021 167.063 98.8668C167.088 98.8315 167.123 98.8043 167.164 98.7887C167.204 98.7731 167.249 98.7697 167.291 98.779C167.334 98.7882 167.372 98.8097 167.403 98.8407C167.433 98.8717 167.453 98.9109 167.461 98.9534C167.469 98.9959 167.464 99.0398 167.448 99.0796C167.431 99.1194 167.402 99.1534 167.366 99.1773C167.33 99.2012 167.287 99.2139 167.244 99.214C167.185 99.2122 167.128 99.1875 167.087 99.1452C167.046 99.1028 167.023 99.0461 167.023 98.9871Z" fill="#9923D0"/>
<path d="M166.799 104.629C166.8 104.546 166.825 104.465 166.871 104.396C166.918 104.328 166.984 104.274 167.061 104.243C167.138 104.211 167.223 104.203 167.305 104.22C167.386 104.236 167.461 104.276 167.52 104.335C167.579 104.394 167.619 104.469 167.635 104.55C167.651 104.632 167.642 104.716 167.61 104.792C167.579 104.869 167.524 104.934 167.455 104.98C167.386 105.026 167.304 105.051 167.221 105.051C167.109 105.05 167.002 105.006 166.923 104.926C166.843 104.847 166.799 104.74 166.799 104.629Z" fill="#233F77"/>
<path d="M166.799 111.409C166.8 111.326 166.825 111.245 166.872 111.177C166.919 111.108 166.985 111.055 167.062 111.024C167.139 110.992 167.224 110.985 167.305 111.001C167.387 111.018 167.462 111.058 167.52 111.117C167.579 111.176 167.619 111.25 167.635 111.332C167.651 111.413 167.642 111.497 167.61 111.574C167.578 111.65 167.524 111.716 167.455 111.762C167.386 111.808 167.304 111.832 167.221 111.832C167.109 111.831 167.001 111.787 166.922 111.707C166.843 111.628 166.799 111.521 166.799 111.409Z" fill="#233F77"/>
<path d="M179.257 124.097L179.269 122.917C179.269 122.917 180.89 112.898 179.767 112.589C178.644 112.279 176.53 113.344 176.53 113.344L177.196 122.917C177.185 123.137 177.152 123.355 177.099 123.569C177.07 123.576 177.042 123.581 177.015 123.589C175.912 123.904 176.575 126.183 177.397 126.223C178 126.253 178.78 125.343 179.309 125.031C179.539 124.891 179.472 124.257 179.257 124.097Z" fill="#EF9E67"/>
<path d="M175.815 113.068C175.815 113.068 175.553 114.481 176.198 114.687C176.842 114.893 180.132 114.998 180.337 114.687C180.543 114.376 180.258 112.007 179.767 111.832C179.277 111.657 176.121 112.301 175.815 113.068Z" fill="#233F77"/>
<path d="M157.566 113.343L156.901 122.916H154.828C154.828 122.916 153.206 112.897 154.329 112.588C155.452 112.278 157.566 113.343 157.566 113.343Z" fill="#FFB27D"/>
<path d="M154.789 125.031C154.561 124.896 154.626 124.257 154.841 124.096C155.351 123.71 156.287 123.361 157.082 123.588C158.185 123.903 157.522 126.182 156.7 126.223C156.097 126.252 155.316 125.345 154.789 125.031Z" fill="#FFB27D"/>
<path d="M154.826 122.916L154.84 124.54C155.106 124.515 156.606 125.078 157.073 124.46C157.254 124.218 156.918 123.582 156.898 122.916C156.838 120.921 154.826 122.916 154.826 122.916Z" fill="#FFB27D"/>
<path d="M158.279 113.068C158.279 113.068 158.541 114.481 157.896 114.687C157.252 114.893 153.962 114.998 153.757 114.687C153.551 114.376 153.837 112.007 154.327 111.832C154.816 111.657 157.975 112.301 158.279 113.068Z" fill="#233F77"/>
<path d="M167.741 84.1551C167.741 84.1551 168.354 86.3499 169.936 86.9692C169.936 86.9692 169.206 85.7045 169.463 85.0841C169.463 85.0841 170.164 87.5635 171.189 88.4154C171.189 88.4154 172.648 83.2772 168.486 83.0186C164.323 82.76 162.653 84.9559 162.628 86.5348C162.617 87.4971 162.822 88.4498 163.226 89.3239C163.226 89.3239 163.682 86.4055 165.507 85.5536C167.331 84.7018 167.741 84.1551 167.741 84.1551Z" fill="#B5493F"/>
<path d="M172.06 138.343C170.399 143.836 168.64 149.02 168.64 149.02L165.675 148.407C165.675 148.407 165.982 143.624 166.072 138.323C166.08 137.902 166.127 137.479 166.156 137.054C166.428 133.051 166.755 128.916 167.084 126.362C167.897 120.084 170.382 120.464 170.928 120.556C171.474 120.648 175.125 120.295 174.934 126.521C174.873 128.543 173.503 133.561 172.06 138.343Z" fill="#FFB27D"/>
<path d="M166.074 138.323C166.101 137.902 166.129 137.479 166.158 137.053C166.43 133.05 166.757 128.916 167.086 126.362C167.086 126.362 166.695 137.304 170.313 138.529C172.705 139.34 168.915 138.788 166.074 138.323Z" fill="#EF9E67"/>
<path d="M172.062 138.343C171.118 141.462 170.143 144.479 169.477 146.51C168.97 148.053 168.64 149.023 168.64 149.023L165.489 148.442C165.489 148.442 165.717 143.597 166.378 137.452C166.784 137.693 167.733 138.005 169.685 138.197C170.353 138.26 171.139 138.314 172.062 138.343Z" fill="#E9F3FE"/>
<path d="M168.655 150.765C168.643 150.892 168.629 151.008 168.614 151.111C168.607 151.167 168.589 151.221 168.561 151.269C168.532 151.317 168.495 151.36 168.449 151.393C168.404 151.427 168.353 151.451 168.298 151.464C168.243 151.477 168.186 151.479 168.131 151.47L165.09 150.948C164.982 150.929 164.885 150.869 164.821 150.78C164.757 150.692 164.731 150.582 164.748 150.474C164.778 150.28 164.82 150.088 164.871 149.899C164.984 149.47 165.149 149.057 165.361 148.667C165.391 148.612 165.433 148.564 165.485 148.527C165.536 148.491 165.595 148.467 165.658 148.457C167.254 148.22 168.166 148.725 168.485 148.96C168.528 148.99 168.565 149.028 168.593 149.073C168.621 149.118 168.64 149.167 168.648 149.219C168.714 149.732 168.716 150.252 168.655 150.765Z" fill="#9923D0"/>
<path d="M168.541 149.098C168.541 149.091 168.273 148.425 167.272 148.141C166.983 148.057 166.677 148.046 166.383 148.108C166.088 148.171 165.814 148.305 165.584 148.498L165.389 148.619C165.422 148.589 166.226 147.668 167.317 147.98C167.626 148.058 167.91 148.212 168.143 148.429C168.375 148.646 168.549 148.918 168.647 149.219L168.541 149.098Z" fill="#9923D0"/>
<path d="M168.655 150.766C168.642 150.893 168.628 151.009 168.613 151.112C168.607 151.168 168.588 151.221 168.56 151.27C168.532 151.318 168.494 151.36 168.449 151.394C168.404 151.427 168.352 151.451 168.297 151.464C168.243 151.478 168.186 151.48 168.13 151.47L165.089 150.949C164.981 150.93 164.885 150.87 164.821 150.781C164.757 150.692 164.73 150.582 164.747 150.474C164.778 150.281 164.819 150.089 164.87 149.899C164.87 149.899 164.956 150.624 166.809 150.92C167.928 151.093 168.427 150.925 168.655 150.766Z" fill="#9923D0"/>
<path d="M95.6948 151.475C95.6948 151.475 95.6697 148.413 97.0185 148.176C98.3673 147.939 100.325 147.2 100.594 151.475H95.6948Z" fill="#22356B"/>
<path d="M105.665 151.475C105.665 151.475 105.641 148.413 106.989 148.176C108.337 147.939 110.295 147.2 110.566 151.475H105.665Z" fill="#22356B"/>
<path d="M93.4508 118.832C92.6609 120.669 92.141 122.61 91.9071 124.594H110.941C110.941 124.594 109.197 118.992 107.634 118.373C106.071 117.754 93.4508 118.832 93.4508 118.832Z" fill="#1B2E59"/>
<path d="M97.3044 91.3171C97.3044 91.3171 95.5326 88.8943 94.3628 86.9491C92.9661 84.6284 93.7471 80.8944 98.831 80.1027C98.831 80.1027 100.465 79.7545 100.93 79.3212C100.93 79.3212 100.906 79.9269 100.76 80.088C100.76 80.088 104.81 79.5583 105.101 81.3674C105.99 86.9026 104.951 88.9227 104.951 88.9227L97.3044 91.3171Z" fill="#B5493F"/>
<path d="M116.682 151.471C116.658 151.473 116.635 151.473 116.611 151.471C116.521 151.475 116.433 151.449 116.359 151.397C116.286 151.345 116.233 151.27 116.208 151.184L111.638 131.53L111.306 130.098L112.868 130.03L113.379 132.709L116.902 151.198C116.907 151.23 116.904 151.263 116.896 151.295C116.887 151.327 116.872 151.356 116.851 151.382C116.831 151.407 116.805 151.428 116.776 151.444C116.747 151.459 116.715 151.468 116.682 151.471Z" fill="#E5BD9E"/>
<path d="M93.4565 130.102L92.7041 133.337L88.5539 151.189C88.5287 151.275 88.4752 151.35 88.402 151.402C88.3288 151.454 88.2402 151.48 88.1503 151.476C88.1264 151.477 88.1024 151.477 88.0785 151.476C88.0462 151.473 88.0148 151.463 87.9862 151.448C87.9575 151.433 87.9323 151.412 87.912 151.387C87.8917 151.361 87.8767 151.332 87.8679 151.301C87.859 151.27 87.8566 151.238 87.8607 151.206L91.6152 131.495L91.8946 130.038L93.4565 130.102Z" fill="#E5BD9E"/>
<path d="M93.4565 130.101L92.7041 133.336C92.6815 132.965 92.5711 132.604 92.3819 132.283C92.1927 131.962 91.93 131.69 91.6152 131.49L91.8946 130.033L93.4565 130.101Z" fill="#CC9E7F"/>
<path d="M113.376 132.717C112.603 131.583 111.666 131.583 111.636 131.539L111.304 130.107L112.866 130.039L113.376 132.717Z" fill="#CC9E7F"/>
<path d="M112.982 130.244H90.3534C89.2345 130.244 88.3274 129.341 88.3274 128.228V126.611C88.3274 125.498 89.2345 124.595 90.3534 124.595H112.982C114.101 124.595 115.008 125.498 115.008 126.611V128.228C115.008 129.341 114.101 130.244 112.982 130.244Z" fill="#A03530"/>
<path d="M109.587 117.948C108.916 114.235 106.965 110.008 106.965 110.008C108.385 104.087 106.935 97.4294 106.935 97.4294C106.153 97.2202 105.357 97.0686 104.553 96.9757C104.454 96.4471 104.167 94.858 104.045 93.489C104.032 93.3302 104.021 93.1748 104.01 93.024C103.987 92.6795 103.987 92.3339 104.01 91.9895L103.011 92.0553L98.8912 92.3287L98.7167 92.34C98.7167 92.34 98.7418 92.7075 98.7487 93.261C98.7601 94.2569 98.7122 95.8494 98.353 96.9927C96.5813 97.1753 95.3807 97.4328 95.3807 97.4328C94.2212 97.629 94.4686 104.812 96.6348 110.396C97.6325 112.966 94.8106 116.944 94.8106 117.95C94.8106 118.956 109.829 119.29 109.587 117.948Z" fill="#FFB27D"/>
<path d="M104.042 93.4868C103.655 93.9405 102.674 94.9137 101.438 94.9353C99.8198 94.9636 98.7401 93.2588 98.7401 93.2588C98.7657 92.9451 98.8133 92.6336 98.8826 92.3265L103.002 92.0531C103.353 92.358 103.689 92.6801 104.009 93.0184C104.018 93.1726 104.029 93.328 104.042 93.4868Z" fill="#EF9E67"/>
<path d="M101.944 93.8025C101.416 93.9032 100.874 93.8996 100.347 93.7917C99.8212 93.6839 99.3215 93.474 98.8768 93.174C98.4321 92.8741 98.0512 92.4899 97.7558 92.0435C97.4604 91.597 97.2562 91.0971 97.1551 90.5721L96.5018 87.2227C96.3618 86.5079 96.5107 85.767 96.9162 85.1608C97.3218 84.5546 97.9512 84.1318 98.668 83.9844L101.094 83.5057C101.812 83.3698 102.554 83.5226 103.158 83.9308C103.762 84.3389 104.179 84.9689 104.316 85.6823L105 89.2178C105.199 90.2283 104.989 91.2759 104.417 92.134C103.845 92.992 102.957 93.5914 101.944 93.8025Z" fill="#FFB27D"/>
<path d="M100.13 91.5661C100.13 91.5661 100.317 92.0811 101.613 91.8429C101.613 91.8429 102.706 91.6432 102.603 91.0648C102.614 91.0648 101.499 90.7778 100.13 91.5661Z" fill="white"/>
<path d="M115.235 115.193L111.645 113.391L110.564 112.848C110.243 112.117 109.164 109.832 108.494 108.523C108.644 109.177 108.792 109.847 108.935 110.516C108.987 110.764 109.038 111.011 109.091 111.258C109.827 114.794 110.386 118.121 110.299 118.833C110.101 120.455 103.794 119.725 102.168 119.334C100.542 118.944 96.8457 119.837 93.8881 119.779C92.1882 119.748 92.7092 114.989 93.4583 110.957C93.6362 109.99 93.8311 109.064 94.009 108.256C93.0536 110.167 92.0708 112.184 91.8347 112.82L89.7985 113.897L87.5467 115.087L87.4885 115.118C87.4834 115.109 87.4803 115.098 87.4794 115.088C87.3426 114.353 89.8235 100.752 92.9521 98.4073C92.9521 98.3469 92.9678 98.2876 92.9978 98.2351C93.0278 98.1826 93.071 98.1388 93.1231 98.1079C94.3522 97.2631 95.8548 96.907 97.3348 97.1097C97.3348 97.1097 98.3609 98.9472 101.325 99.0867C102.179 99.1343 103.032 98.9872 103.82 98.6567C104.608 98.3263 105.309 97.8212 105.871 97.1801C105.871 97.1801 107.322 97.2164 108.451 97.7222C108.789 97.8634 109.094 98.0709 109.35 98.3325C110.337 99.4055 115.135 108.618 115.235 115.193Z" fill="#A53A35"/>
<path d="M110.717 112.682C110.717 112.682 105.626 118.149 103.146 119.99L103.936 121.624C103.936 121.624 111.803 118.633 115.122 114.435L110.717 112.682Z" fill="#0052B4"/>
<path d="M103.788 119.607C103.788 119.607 101.692 120.195 101.351 120.854C101.01 121.513 101.154 123.378 101.683 123.067C102.212 122.757 105.126 120.832 105.126 120.832L103.788 119.607Z" fill="#0052B4"/>
<path d="M98.5848 95.9129C98.5848 95.9129 99.9747 98.6567 101.328 99.0888C101.328 99.0888 99.4034 99.8204 96.5964 97.0574C96.798 96.71 97.0878 96.4215 97.4368 96.2206C97.7857 96.0197 98.1817 95.9136 98.5848 95.9129Z" fill="#E6F1FF"/>
<path d="M104.42 95.9129C104.42 95.9129 102.681 98.6567 101.327 99.0888C101.327 99.0888 103.607 99.8204 106.408 97.0574C106.207 96.7102 105.917 96.4218 105.568 96.2209C105.219 96.0201 104.823 95.9139 104.42 95.9129Z" fill="#E6F1FF"/>
<path d="M91.8499 112.682C91.8499 112.682 97.1493 117.946 99.6986 119.689L98.9712 121.353C98.9712 121.353 91.4542 118.785 87.9745 114.719L91.8499 112.682Z" fill="#FFB27D"/>
<path d="M97.8056 119.22C97.8056 119.22 99.9719 119.369 100.442 119.939C100.911 120.508 101.145 122.371 100.566 122.174C99.9867 121.978 96.7418 120.69 96.7418 120.69L97.8056 119.22Z" fill="#FFB27D"/>
<path d="M100.907 104.718C100.908 104.635 100.933 104.555 100.98 104.486C101.027 104.417 101.093 104.364 101.17 104.333C101.248 104.302 101.332 104.294 101.414 104.311C101.496 104.327 101.57 104.368 101.629 104.427C101.688 104.486 101.727 104.56 101.743 104.642C101.759 104.723 101.75 104.807 101.718 104.884C101.686 104.96 101.632 105.026 101.562 105.072C101.493 105.117 101.411 105.142 101.328 105.141C101.216 105.141 101.109 105.096 101.03 105.016C100.951 104.937 100.907 104.83 100.907 104.718Z" fill="#C65447"/>
<path d="M100.907 111.499C100.908 111.416 100.933 111.335 100.98 111.266C101.027 111.198 101.093 111.145 101.17 111.113C101.248 111.082 101.332 111.074 101.414 111.091C101.496 111.108 101.57 111.148 101.629 111.207C101.688 111.266 101.727 111.341 101.743 111.422C101.759 111.504 101.75 111.588 101.718 111.664C101.686 111.741 101.632 111.806 101.562 111.852C101.493 111.898 101.411 111.922 101.328 111.922C101.216 111.921 101.109 111.876 101.03 111.797C100.951 111.717 100.907 111.61 100.907 111.499Z" fill="#C65447"/>
<path d="M96.5031 87.2227C96.5031 87.2227 96.6262 85.8616 97.4927 85.6438C98.3592 85.426 101.587 86.5818 102.281 85.6438C102.976 84.7058 103.502 84.3099 103.971 84.7818C104.44 85.2536 104.109 81.9461 103.995 81.903C103.881 81.8599 96.6981 82.2535 96.6981 82.2535L94.9879 84.0683L95.0756 86.1304L96.5031 87.2227Z" fill="#B5493F"/>
<path d="M101.541 148.627C101.541 148.627 100.327 149.134 98.481 149.148C97.1722 149.157 95.8736 148.918 94.6547 148.443C94.6547 148.443 93.5898 140.952 92.9536 134.543C92.5933 130.899 92.3698 127.605 92.5602 126.239C93.0847 122.472 94.7904 120.296 96.943 120.477C99.0955 120.659 101.108 122.157 101.257 123.975C101.407 125.793 101.541 148.627 101.541 148.627Z" fill="#2B478B"/>
<path d="M94.803 105.41L94.005 108.256C93.135 110.814 92.0667 112.184 91.8307 112.82L89.7944 113.897L87.5426 115.087H87.4754C87.1675 113.584 89.7009 100.682 92.826 98.3315C92.9184 98.2507 93.0151 98.175 93.1156 98.1046C94.1281 100.018 95.982 103.993 94.803 105.41Z" fill="#E6F1FF"/>
<path d="M93.4485 113.865L92.4429 114.747L89.8479 117.015C88.4125 116.902 87.3761 115.191 87.3761 115.191C87.8834 114.376 88.6576 113.782 89.4283 113.359C90.2362 112.923 91.1039 112.607 92.0039 112.42L93.4485 113.865Z" fill="#E6F1FF"/>
<path d="M93.4485 113.865L92.4429 114.746C90.6996 114.733 89.4272 113.361 89.4272 113.361C90.2351 112.925 91.1028 112.609 92.0028 112.422L93.4485 113.865Z" fill="#C7DCF2"/>
<path d="M108.453 97.7214C108.795 97.8757 109.207 98.0526 109.443 98.309C109.761 98.6561 110.43 99.881 111.257 101.564C112.99 105.09 115.168 110.752 115.235 115.194L113.137 114.14L111.645 113.391L110.564 112.848C109.928 111.807 109.053 109.887 108.494 108.523C108.644 109.177 108.792 109.848 108.935 110.516L107.377 104.719C106.684 103.693 108.146 98.7275 108.453 97.7214Z" fill="#E6F1FF"/>
<path d="M115.235 115.193C115.235 115.193 114.197 116.905 112.763 117.017L109.814 114.435L109.164 113.867L110.393 112.465C111.073 112.589 111.739 112.782 112.38 113.041C113.402 113.452 114.573 114.128 115.235 115.193Z" fill="#E6F1FF"/>
<path d="M112.38 113.041C112.38 113.041 110.995 114.26 109.814 114.435L109.164 113.867L110.393 112.465C111.073 112.589 111.739 112.782 112.38 113.041Z" fill="#C7DCF2"/>
<path d="M110.428 142.306C110.649 145.427 110.779 147.709 110.779 147.709C107.341 149.904 104.064 149.255 104.064 149.255C104.064 149.255 100.699 131.937 99.7429 126.517C99.6106 125.771 99.5251 125.251 99.5 125.032C99.2891 123.217 100.969 121.351 103.042 120.746C105.116 120.142 107.216 121.936 108.471 125.526C109.286 127.859 110.016 136.522 110.428 142.306Z" fill="#2B478B"/>
<path d="M110.428 142.306C110.649 145.426 110.779 147.709 110.779 147.709C107.341 149.903 104.064 149.255 104.064 149.255C104.064 149.255 100.699 131.937 99.7429 126.517C99.7588 125.968 99.7691 125.643 99.7702 125.601C99.8135 125.943 101.849 141.745 110.428 142.306Z" fill="#233F77"/>
<path d="M98.481 149.148C97.1721 149.157 95.8736 148.918 94.6546 148.444C94.6546 148.444 93.5898 140.952 92.9536 134.543C92.99 134.72 95.1974 145.491 98.481 149.148Z" fill="#233F77"/>
<path d="M111.255 101.564C112.988 105.089 115.417 110.559 115.233 115.193L113.135 114.14C113.183 114.097 113.233 114.057 113.286 114.019C115.426 112.48 111.359 101.829 111.255 101.564Z" fill="#C7DCF2"/>
<path d="M59.3297 90.6361C58.5867 89.5967 58.0847 88.4062 57.8601 87.1505C57.5009 85.085 57.778 80.0274 61.6123 80.2554C64.3395 80.4176 65.8308 79.7574 67.0348 80.4618C68.1396 81.1072 69.7221 82.9776 69.4131 84.9296C69.1042 86.8817 67.2469 90.6361 67.2469 90.6361H59.3297Z" fill="#1B2E59"/>
<path d="M57.6903 151.475C57.6903 151.475 57.6664 148.413 59.014 148.176C60.3617 147.939 62.3204 147.2 62.5895 151.475H57.6903Z" fill="#22356B"/>
<path d="M64.6447 151.475C64.6447 151.475 64.6208 148.413 65.9696 148.176C67.3183 147.939 69.2703 147.2 69.545 151.475H64.6447Z" fill="#22356B"/>
<path d="M55.4464 118.832C54.6572 120.67 54.1373 122.61 53.9027 124.594H72.9362C72.9362 124.594 71.1929 118.992 69.6297 118.373C68.0666 117.754 55.4464 118.832 55.4464 118.832Z" fill="#993530"/>
<path d="M78.6786 151.471C78.6547 151.473 78.6307 151.473 78.6068 151.471C78.5169 151.475 78.4282 151.449 78.355 151.397C78.2819 151.345 78.2284 151.27 78.2032 151.184L73.6335 131.53L73.3017 130.098L74.8637 130.03L75.3745 132.709L78.8975 151.198C78.9021 151.23 78.9001 151.263 78.8914 151.295C78.8828 151.326 78.8677 151.356 78.8472 151.381C78.8267 151.407 78.8012 151.428 78.7722 151.443C78.7432 151.459 78.7114 151.468 78.6786 151.471Z" fill="#E5BD9E"/>
<path d="M55.4561 130.101L54.7047 133.336L50.5535 151.188C50.5282 151.274 50.4747 151.349 50.4016 151.401C50.3284 151.453 50.2397 151.479 50.1499 151.475C50.1259 151.477 50.1019 151.477 50.078 151.475C50.0457 151.472 50.0143 151.463 49.9857 151.448C49.9571 151.432 49.9318 151.411 49.9115 151.386C49.8912 151.361 49.8762 151.332 49.8674 151.301C49.8586 151.27 49.8561 151.237 49.8603 151.205L53.6147 131.49L53.8929 130.033L55.4561 130.101Z" fill="#E5BD9E"/>
<path d="M55.4561 130.101L54.7047 133.336C54.6822 132.965 54.5718 132.604 54.3826 132.283C54.1934 131.962 53.9307 131.69 53.6159 131.49L53.8941 130.033L55.4561 130.101Z" fill="#CC9E7F"/>
<path d="M75.3755 132.717C74.6036 131.583 73.6653 131.583 73.6356 131.539L73.3038 130.107L74.8658 130.039L75.3755 132.717Z" fill="#CC9E7F"/>
<path d="M52.3479 130.244H74.9774C75.5147 130.244 76.03 130.032 76.41 129.654C76.79 129.276 77.0034 128.763 77.0034 128.228V126.611C77.0034 126.076 76.79 125.564 76.41 125.186C76.03 124.808 75.5147 124.595 74.9774 124.595H52.3479C51.8109 124.595 51.2958 124.808 50.9161 125.185C50.5363 125.563 50.323 126.075 50.323 126.61V128.228C50.3228 128.493 50.3751 128.755 50.4768 129C50.5785 129.244 50.7276 129.466 50.9157 129.653C51.1037 129.841 51.327 129.989 51.5727 130.09C51.8185 130.192 52.0819 130.244 52.3479 130.244Z" fill="#FF9924"/>
<path d="M71.5824 117.948C70.912 114.235 68.9601 110.008 68.9601 110.008C70.3796 104.087 68.9293 97.4294 68.9293 97.4294C68.148 97.2203 67.3523 97.0687 66.5487 96.9757C66.4483 96.4471 66.161 94.858 66.0402 93.489C66.0265 93.3302 66.0151 93.1748 66.0048 93.024C65.981 92.6796 65.981 92.3339 66.0048 91.9895L65.0038 92.0553L60.8845 92.3287L60.71 92.34C60.71 92.34 60.7351 92.7075 60.7419 93.261C60.7545 94.2569 60.7055 95.8494 60.3475 96.9927C58.5745 97.1753 57.374 97.4328 57.374 97.4328C56.2144 97.629 56.4619 104.812 58.6281 110.396C59.6269 112.966 56.8039 116.944 56.8039 117.95C56.8039 118.956 71.8253 119.29 71.5824 117.948Z" fill="#FFB27D"/>
<path d="M66.0411 93.4869C65.6535 93.9406 64.6787 94.9138 63.4359 94.9353C61.818 94.9637 60.7383 93.2589 60.7383 93.2589C60.7639 92.9452 60.8115 92.6336 60.8809 92.3265L65.0002 92.0532C65.3517 92.3589 65.6873 92.6822 66.0058 93.0218C66.0138 93.1727 66.0252 93.3281 66.0411 93.4869Z" fill="#EF9E67"/>
<path d="M63.4042 93.9714C62.3186 93.9639 61.2801 93.5288 60.5162 92.7614C59.7523 91.994 59.3251 90.9568 59.3282 89.8767V86.4637C59.3266 85.7364 59.6145 85.038 60.1289 84.5211C60.6434 84.0043 61.3425 83.7109 62.0736 83.7052H64.5454C65.2765 83.7109 65.9757 84.0043 66.4901 84.5211C67.0045 85.038 67.2924 85.7364 67.2909 86.4637V90.0695C67.2921 91.0987 66.8841 92.0865 66.156 92.8175C65.4278 93.5485 64.4386 93.9633 63.4042 93.9714Z" fill="#FFB27D"/>
<path d="M62.0604 91.4299C62.0604 91.4299 62.1448 91.9709 63.4673 91.9902C63.4673 91.9902 64.579 92.0049 64.5892 91.423C64.5892 91.4162 63.5483 90.9183 62.0604 91.4299Z" fill="white"/>
<path d="M77.2306 115.194L73.6403 113.391L72.5606 112.848C72.2391 112.117 71.1594 109.832 70.4901 108.523C70.6406 109.177 70.7877 109.848 70.9302 110.516C70.9838 110.764 71.0351 111.012 71.0864 111.259C71.8229 114.794 72.3816 118.121 72.2949 118.833C72.0966 120.455 65.7893 119.725 64.1635 119.335C62.5376 118.945 58.8413 119.837 55.8837 119.779C54.1838 119.749 54.7048 114.989 55.4539 110.957C55.6318 109.991 55.8267 109.064 56.0046 108.256C55.0492 110.168 54.0664 112.184 53.8303 112.821L51.7941 113.897L49.5423 115.087L49.4841 115.119C49.4791 115.109 49.4759 115.099 49.475 115.088C49.3382 114.353 51.7006 100.683 54.8257 98.3328C54.9183 98.2519 55.0154 98.1762 55.1164 98.106C56.3455 97.261 57.8481 96.9049 59.3281 97.1078C59.3281 97.1078 60.3542 98.9453 63.3186 99.0848C64.1722 99.1323 65.0255 98.9853 65.8133 98.6548C66.6011 98.3244 67.3026 97.8193 67.8643 97.1782C67.8643 97.1782 69.3157 97.2144 70.4445 97.7203C70.7824 97.8612 71.088 98.0688 71.3429 98.3305C72.3326 99.4058 77.1303 108.618 77.2306 115.194Z" fill="#0052B4"/>
<path d="M72.7189 112.682C72.7189 112.682 67.627 118.149 65.146 119.99L65.9373 121.624C65.9373 121.624 73.8043 118.633 77.1221 114.435L72.7189 112.682Z" fill="#0052B4"/>
<path d="M65.7872 119.607C65.7872 119.607 63.6928 120.195 63.3519 120.854C63.011 121.513 63.1546 123.378 63.6825 123.067C64.2104 122.757 67.1257 120.832 67.1257 120.832L65.7872 119.607Z" fill="#0052B4"/>
<path d="M60.5793 95.9129C60.5793 95.9129 61.9691 98.6567 63.3236 99.0888C63.3236 99.0888 61.3979 99.8204 58.5909 97.0574C58.7925 96.71 59.0823 96.4215 59.4312 96.2206C59.7802 96.0197 60.1761 95.9136 60.5793 95.9129Z" fill="#233F77"/>
<path d="M66.4155 95.9129C66.4155 95.9129 64.6768 98.6567 63.3235 99.0888C63.3235 99.0888 65.5969 99.8204 68.4039 97.0574C68.2023 96.71 67.9126 96.4215 67.5636 96.2206C67.2146 96.0197 66.8187 95.9136 66.4155 95.9129Z" fill="#233F77"/>
<path d="M53.8416 112.682C53.8416 112.682 59.141 117.946 61.6903 119.689L60.964 121.353C60.964 121.353 53.4459 118.785 49.9662 114.719L53.8416 112.682Z" fill="#FFB27D"/>
<path d="M59.8008 119.22C59.8008 119.22 61.9671 119.369 62.4368 119.939C62.9066 120.508 63.1415 122.371 62.5611 122.174C61.9808 121.978 58.7371 120.69 58.7371 120.69L59.8008 119.22Z" fill="#FFB27D"/>
<path d="M62.9052 104.718C62.9061 104.636 62.9315 104.555 62.9783 104.487C63.0251 104.419 63.0911 104.366 63.168 104.335C63.245 104.304 63.3294 104.296 63.4107 104.313C63.492 104.33 63.5666 104.37 63.6249 104.428C63.6833 104.487 63.723 104.562 63.7388 104.643C63.7547 104.724 63.7461 104.808 63.7141 104.884C63.6822 104.96 63.6282 105.025 63.5591 105.071C63.4901 105.117 63.4089 105.141 63.3259 105.141C63.2703 105.141 63.2154 105.13 63.1642 105.108C63.113 105.087 63.0665 105.056 63.0275 105.017C62.9884 104.977 62.9575 104.931 62.9365 104.879C62.9155 104.828 62.9049 104.774 62.9052 104.718Z" fill="#C65447"/>
<path d="M62.9052 111.498C62.9061 111.416 62.9315 111.335 62.9783 111.267C63.0251 111.199 63.0911 111.146 63.168 111.115C63.245 111.084 63.3294 111.076 63.4107 111.093C63.492 111.11 63.5666 111.15 63.6249 111.209C63.6833 111.267 63.723 111.342 63.7388 111.423C63.7547 111.504 63.7461 111.588 63.7141 111.664C63.6822 111.74 63.6282 111.806 63.5591 111.851C63.4901 111.897 63.4089 111.922 63.3259 111.922C63.2703 111.921 63.2154 111.91 63.1642 111.889C63.113 111.867 63.0665 111.836 63.0275 111.797C62.9884 111.757 62.9575 111.711 62.9365 111.66C62.9155 111.609 62.9049 111.554 62.9052 111.498Z" fill="#C65447"/>
<path d="M59.3272 86.4633C59.3272 86.4633 59.7102 85.1487 60.6007 85.1022C61.4911 85.0557 64.4384 86.8149 65.2946 86.0232C66.1509 85.2315 66.7483 84.9491 67.1189 85.5037C67.4894 86.0584 67.7961 82.752 67.6889 82.6828C67.5818 82.6136 60.4593 81.6155 60.4593 81.6155L58.4378 83.0617L58.13 85.1033L59.3272 86.4633Z" fill="#1B2E59"/>
<path d="M63.5327 148.627C63.5327 148.627 62.3185 149.134 60.4726 149.148C59.1638 149.157 57.8652 148.918 56.6463 148.443C56.6463 148.443 55.5825 140.952 54.9463 134.543C54.5849 130.899 54.3626 127.605 54.5518 126.239C55.0763 122.472 56.7819 120.296 58.9345 120.477C61.0871 120.659 63.0995 122.157 63.25 123.975C63.4005 125.793 63.5327 148.627 63.5327 148.627Z" fill="#0052B4"/>
<path d="M70.8909 143.068C70.5055 146.172 70.1908 148.436 70.1908 148.436C66.393 149.918 63.3044 148.642 63.3044 148.642C63.3044 148.642 63.3511 130.998 63.4606 125.494C63.4754 124.737 63.4914 124.209 63.5096 123.989C63.6533 122.174 65.6611 120.665 67.8125 120.472C69.9639 120.28 71.6776 122.455 72.2135 126.221C72.5623 128.673 71.6035 137.314 70.8909 143.068Z" fill="#0052B4"/>
<path d="M56.7989 105.41L56.0008 108.256C55.0454 110.167 54.0626 112.184 53.8266 112.82L51.7903 113.897L49.5385 115.087H49.4712C49.3344 114.352 51.6968 100.682 54.8219 98.3315C54.9145 98.2505 55.0116 98.1748 55.1126 98.1046C56.1217 100.018 57.9778 103.993 56.7989 105.41Z" fill="#9923D0"/>
<path d="M55.4481 113.865L54.4425 114.747L51.8475 117.015C50.4121 116.902 49.3769 115.191 49.3769 115.191C49.8831 114.376 50.6572 113.782 51.4291 113.359C52.2366 112.923 53.1039 112.607 54.0035 112.42L55.4481 113.865Z" fill="#9923D0"/>
<path d="M55.4481 113.865L54.4425 114.746C52.7004 114.733 51.428 113.361 51.428 113.361C52.2354 112.925 53.1028 112.609 54.0024 112.422L55.4481 113.865Z" fill="#233F77"/>
<path d="M77.2306 115.194L75.1327 114.14L73.6403 113.391L72.5606 112.848C72.2391 112.117 71.1594 109.832 70.4901 108.523C70.6406 109.177 70.7877 109.848 70.9302 110.516L69.3728 104.719C68.6807 103.698 70.1423 98.7275 70.449 97.7214C70.7869 97.8623 71.0926 98.0699 71.3475 98.3317C71.6656 98.6787 72.3827 99.8754 73.2093 101.56C74.9446 105.09 77.1633 110.746 77.2306 115.194Z" fill="#9923D0"/>
<path d="M77.2306 115.193C77.2306 115.193 76.1931 116.905 74.7599 117.017L71.8092 114.434L71.1593 113.867L72.3884 112.467C73.0689 112.591 73.7348 112.784 74.3757 113.043C75.3984 113.452 76.5682 114.128 77.2306 115.193Z" fill="#9923D0"/>
<path d="M74.3757 113.04C74.3757 113.04 72.9905 114.26 71.8093 114.434L71.1594 113.867L72.3884 112.467C73.0688 112.59 73.7348 112.782 74.3757 113.04Z" fill="#233F77"/>
<path d="M70.8879 143.068C70.5026 146.172 70.1879 148.436 70.1879 148.436C66.3901 149.917 63.3014 148.641 63.3014 148.641C63.3014 148.641 63.3482 130.998 63.4577 125.493C63.5796 124.959 63.6515 124.642 63.6617 124.601C63.6378 124.946 62.5797 140.842 70.8879 143.068Z" fill="#4395F2"/>
<path d="M60.4766 149.148C59.1678 149.157 57.8692 148.918 56.6502 148.444C56.6502 148.444 55.5865 140.952 54.9503 134.543C54.9799 134.72 57.193 145.491 60.4766 149.148Z" fill="#4395F2"/>
<path d="M73.2116 101.564C74.9446 105.089 77.1633 110.752 77.2306 115.193L75.1327 114.14C75.1806 114.097 75.2309 114.057 75.2832 114.019C77.4233 112.48 73.3142 101.829 73.2116 101.564Z" fill="#233F77"/>
<path d="M232.521 151.471C232.497 151.473 232.473 151.473 232.449 151.471C232.359 151.475 232.27 151.449 232.197 151.397C232.124 151.345 232.071 151.27 232.045 151.184L227.477 131.53L227.145 130.098L228.708 130.03L229.216 132.717L232.739 151.206C232.742 151.237 232.739 151.269 232.73 151.3C232.721 151.331 232.706 151.359 232.686 151.384C232.665 151.408 232.64 151.429 232.612 151.444C232.584 151.459 232.553 151.468 232.521 151.471Z" fill="#E5BD9E"/>
<path d="M209.296 130.102L208.544 133.337L204.394 151.189C204.368 151.274 204.315 151.349 204.241 151.401C204.168 151.453 204.08 151.479 203.99 151.476C203.966 151.477 203.942 151.477 203.918 151.476C203.886 151.473 203.854 151.463 203.825 151.448C203.797 151.433 203.771 151.412 203.751 151.386C203.73 151.361 203.715 151.332 203.707 151.301C203.698 151.269 203.695 151.237 203.699 151.205L207.455 131.495L207.733 130.038L209.296 130.102Z" fill="#E5BD9E"/>
<path d="M209.296 130.101L208.544 133.336C208.521 132.965 208.411 132.604 208.222 132.283C208.032 131.962 207.77 131.69 207.455 131.49L207.733 130.033L209.296 130.101Z" fill="#CC9E7F"/>
<path d="M229.216 132.717C228.444 131.583 227.505 131.583 227.477 131.539L227.145 130.107L228.708 130.039L229.216 132.717Z" fill="#CC9E7F"/>
<path d="M206.192 130.242H228.822C229.359 130.242 229.874 130.03 230.254 129.652C230.634 129.274 230.848 128.761 230.848 128.226V126.609C230.848 126.074 230.634 125.562 230.254 125.184C229.874 124.806 229.359 124.593 228.822 124.593H206.192C205.655 124.593 205.14 124.806 204.76 125.183C204.38 125.561 204.167 126.073 204.167 126.608V128.226C204.167 128.491 204.219 128.753 204.321 128.998C204.423 129.242 204.572 129.464 204.76 129.651C204.948 129.839 205.171 129.987 205.417 130.088C205.663 130.19 205.926 130.242 206.192 130.242Z" fill="#C65447"/>
<path d="M217.233 79.9659C217.233 79.9659 213.065 79.0721 210.506 80.9708C207.948 82.8696 209.673 87.3941 208.672 88.5703C207.671 89.7466 206.506 90.1901 207.672 92.5402C208.838 94.8904 206.506 95.5211 206.506 97.2156C206.506 98.9102 208.93 99.4081 208.996 100.916C209.062 102.423 216.622 103.82 219.845 103.876C223.068 103.932 226.791 100.034 227.237 99.2743C227.683 98.5144 228.848 95.107 227.237 93.3762C225.626 91.6453 226.905 89.2985 226.294 87.9578C225.683 86.6171 223.348 85.8356 223.737 84.7184C224.125 83.6011 223.292 78.7363 217.233 79.9659Z" fill="#1B2E59"/>
<path d="M225.427 117.948C224.757 114.233 222.804 110.008 222.804 110.008C224.224 104.087 222.775 97.4294 222.775 97.4294C221.993 97.2203 221.197 97.0687 220.393 96.9757C220.294 96.4471 220.006 94.858 219.884 93.489C219.871 93.3302 219.859 93.1748 219.849 93.024C219.826 92.6795 219.826 92.3339 219.849 91.9895L218.848 92.0553L214.716 92.3264L214.54 92.3377C214.54 92.3377 214.566 92.7041 214.572 93.2587C214.585 94.2546 214.536 95.8471 214.178 96.9904C212.405 97.1731 211.204 97.4305 211.204 97.4305C210.045 97.6268 210.292 104.81 212.459 110.394C213.457 112.964 210.634 116.942 210.634 117.948C210.634 118.954 225.669 119.29 225.427 117.948Z" fill="#FFB27D"/>
<path d="M219.881 93.4868C219.494 93.9405 218.518 94.9137 217.275 94.9353C215.659 94.9636 214.578 93.2588 214.578 93.2588C214.604 92.9451 214.652 92.6335 214.721 92.3265L218.84 92.0531C219.192 92.3574 219.528 92.6796 219.846 93.0184C219.856 93.1726 219.867 93.328 219.881 93.4868Z" fill="#EF9E67"/>
<path d="M217.244 93.9715C215.003 93.9715 213.169 92.1284 213.169 89.8769V86.4639C213.168 85.7365 213.455 85.038 213.969 84.5209C214.484 84.0038 215.183 83.7102 215.914 83.7042H218.386C219.117 83.7099 219.816 84.0034 220.331 84.5205C220.845 85.0376 221.133 85.7363 221.131 86.4639V90.0697C221.132 91.0988 220.724 92.0867 219.996 92.8177C219.268 93.5486 218.279 93.9634 217.244 93.9715Z" fill="#FFB27D"/>
<path d="M215.9 91.4299C215.9 91.4299 215.985 91.9709 217.308 91.9902C217.308 91.9902 218.419 92.0049 218.429 91.423C218.429 91.4162 217.388 90.9183 215.9 91.4299Z" fill="white"/>
<path d="M217.389 82.5829C217.389 82.5829 217.035 86.8137 213.285 87.7154C209.535 88.6171 212.805 80.5696 215.337 81.1889C217.869 81.8082 217.389 82.5829 217.389 82.5829Z" fill="#1B2E59"/>
<path d="M216.941 82.5829C216.941 82.5829 217.296 86.8137 221.046 87.7154C224.796 88.6171 221.526 80.5696 218.993 81.1889C216.461 81.8082 216.941 82.5829 216.941 82.5829Z" fill="#1B2E59"/>
<path d="M206.165 124.595C206.165 124.595 208.907 118.217 211.418 116.971C213.928 115.724 223.924 116.831 225.424 117.949C226.925 119.066 228.845 124.595 228.845 124.595H206.165Z" fill="#22356B"/>
<path d="M208.673 124.595C208.673 124.595 209.65 120.769 211.826 120.602C214.001 120.435 216.905 122.458 217.938 121.913C218.971 121.369 220.94 120.003 222.769 120.351C224.597 120.7 227.349 124.595 227.349 124.595H208.673Z" fill="#1B2E59"/>
<path d="M218.424 148.697L215.829 148.731C215.829 148.731 214.613 144.574 213.269 139.723C213.145 139.269 213.016 138.809 212.889 138.345C211.779 134.3 210.65 130.007 210.098 127.357C209.966 126.722 209.87 126.148 209.814 125.626C209.292 121.072 211.333 120.694 211.822 120.603C212.366 120.504 215.699 118.966 217.562 124.913C218.19 126.916 219.083 132.435 218.747 137.592C218.425 142.548 218.424 148.697 218.424 148.697Z" fill="#FFB27D"/>
<path d="M224.492 137.879C223.411 143.516 222.2 148.857 222.2 148.857L219.189 148.56C219.189 148.56 218.997 143.77 218.535 138.488C218.498 138.068 218.502 137.643 218.487 137.217C218.34 133.208 218.235 129.062 218.297 126.486C218.452 120.157 220.963 120.279 221.515 120.308C222.067 120.336 225.661 119.607 226.117 125.819C226.27 127.84 225.433 132.971 224.492 137.879Z" fill="#FFB27D"/>
<path d="M213.267 139.722C213.143 139.269 213.014 138.808 212.888 138.344C211.777 134.3 210.648 130.006 210.096 127.357C209.964 126.722 209.868 126.148 209.813 125.626C209.87 125.814 213.529 137.751 217.192 138.638C219.541 139.207 216.082 139.549 213.267 139.722Z" fill="#EF9E67"/>
<path d="M218.535 138.487C218.519 138.067 218.502 137.642 218.487 137.217C218.34 133.207 218.235 129.062 218.297 126.486C218.297 126.486 219.047 137.41 222.773 138.247C225.236 138.802 221.408 138.652 218.535 138.487Z" fill="#EF9E67"/>
<path d="M224.494 137.878C223.879 141.079 223.225 144.182 222.772 146.272C222.43 147.86 222.202 148.859 222.202 148.859L219.009 148.613C219.009 148.613 218.732 143.769 218.751 137.588C219.179 137.785 220.154 137.996 222.116 137.981C222.786 137.976 223.572 137.946 224.494 137.878Z" fill="#E9F3FE"/>
<path d="M222.772 146.269C222.43 147.857 222.202 148.857 222.202 148.857L219.01 148.61C219.01 148.61 218.48 143.606 218.498 137.424C218.927 137.622 220.155 137.992 222.117 137.979C222.114 137.979 220.75 144.315 222.772 146.269Z" fill="#C7DCF2"/>
<path d="M222.412 150.54C222.412 150.667 222.412 150.785 222.412 150.888C222.411 150.944 222.399 150.999 222.375 151.05C222.352 151.101 222.319 151.147 222.278 151.185C222.236 151.223 222.187 151.253 222.134 151.271C222.081 151.29 222.025 151.298 221.969 151.295L218.891 151.096C218.781 151.089 218.679 151.039 218.605 150.957C218.532 150.876 218.494 150.769 218.499 150.66C218.511 150.464 218.532 150.269 218.563 150.076C218.631 149.638 218.751 149.209 218.921 148.799C218.945 148.741 218.983 148.689 219.03 148.647C219.078 148.606 219.134 148.576 219.195 148.559C220.759 148.154 221.717 148.559 222.06 148.761C222.106 148.787 222.146 148.822 222.179 148.863C222.211 148.905 222.235 148.952 222.248 149.003C222.366 149.507 222.421 150.023 222.412 150.54Z" fill="#9923D0"/>
<path d="M222.125 148.893C222.125 148.893 221.783 148.252 220.764 148.074C220.468 148.021 220.163 148.042 219.876 148.135C219.59 148.228 219.331 148.39 219.123 148.607L218.942 148.749C218.971 148.715 219.674 147.714 220.793 147.909C221.108 147.954 221.407 148.078 221.66 148.269C221.914 148.461 222.115 148.713 222.244 149.003L222.125 148.893Z" fill="#9923D0"/>
<path d="M222.413 150.54C222.413 150.667 222.413 150.785 222.413 150.888C222.412 150.944 222.399 150.999 222.376 151.05C222.353 151.101 222.32 151.147 222.278 151.185C222.237 151.223 222.188 151.252 222.135 151.271C222.082 151.29 222.026 151.298 221.97 151.295L218.891 151.095C218.782 151.088 218.679 151.039 218.606 150.957C218.533 150.876 218.495 150.769 218.5 150.66C218.512 150.464 218.533 150.269 218.564 150.076C218.564 150.076 218.725 150.787 220.598 150.883C221.726 150.94 222.21 150.72 222.413 150.54Z" fill="#22356B"/>
<path d="M218.423 148.696L215.801 149.114L215.132 149.227C215.132 149.227 214.375 143.765 212.889 138.35C214.793 138.551 216.719 138.291 218.5 137.591C218.714 143.11 218.423 148.696 218.423 148.696Z" fill="#E9F3FE"/>
<path d="M215.801 149.114L215.132 149.228C215.132 149.228 214.375 143.765 212.889 138.35C214.026 138.478 215.176 138.434 216.3 138.22C216.3 138.22 214.973 146.129 215.801 149.114Z" fill="#C7DCF2"/>
<path d="M218.921 150.161C218.948 150.286 218.971 150.4 218.99 150.501C219.001 150.556 219.001 150.613 218.989 150.667C218.978 150.722 218.956 150.774 218.924 150.82C218.892 150.866 218.851 150.906 218.804 150.936C218.756 150.966 218.703 150.986 218.648 150.996L215.599 151.47C215.491 151.487 215.381 151.46 215.292 151.397C215.203 151.333 215.143 151.237 215.125 151.13C215.094 150.936 215.072 150.741 215.061 150.546C215.033 150.103 215.058 149.658 215.136 149.221C215.147 149.159 215.173 149.1 215.21 149.049C215.247 148.998 215.296 148.956 215.352 148.927C216.792 148.193 217.815 148.382 218.193 148.503C218.243 148.518 218.29 148.543 218.33 148.577C218.371 148.61 218.404 148.651 218.428 148.698C218.651 149.164 218.817 149.655 218.921 150.161Z" fill="#9923D0"/>
<path d="M218.286 148.617C218.286 148.611 217.82 148.064 216.781 148.113C216.48 148.126 216.186 148.213 215.927 148.366C215.667 148.519 215.45 148.733 215.293 148.99L215.146 149.167C215.168 149.127 215.64 147.997 216.773 147.945C217.09 147.921 217.408 147.977 217.697 148.109C217.986 148.241 218.237 148.444 218.425 148.698L218.286 148.617Z" fill="#9923D0"/>
<path d="M218.921 150.161C218.948 150.286 218.971 150.401 218.99 150.502C219.001 150.556 219.001 150.613 218.989 150.668C218.978 150.722 218.956 150.774 218.924 150.82C218.892 150.867 218.851 150.906 218.804 150.936C218.756 150.966 218.703 150.987 218.648 150.996L215.599 151.47C215.491 151.487 215.381 151.461 215.292 151.397C215.203 151.333 215.143 151.237 215.125 151.13C215.094 150.936 215.072 150.741 215.061 150.546C215.061 150.546 215.37 151.206 217.221 150.886C218.336 150.702 218.761 150.382 218.921 150.161Z" fill="#22356B"/>
<path d="M231.075 115.193L227.487 113.39L226.406 112.848C226.085 112.117 225.005 109.832 224.336 108.523C224.542 109.421 224.742 110.348 224.932 111.259C225.668 114.794 226.227 118.121 226.14 118.833C225.942 120.455 219.641 119.725 218.01 119.335C216.378 118.944 212.687 119.837 209.73 119.78C208.029 119.749 208.551 114.989 209.3 110.957C209.478 109.991 209.672 109.064 209.85 108.256C208.894 110.166 207.912 112.184 207.676 112.821L205.639 113.897L203.329 115.119C203.325 115.109 203.322 115.099 203.32 115.088C203.181 114.362 205.545 100.683 208.671 98.3304C209.298 97.8322 210.021 97.4669 210.795 97.257C211.57 97.0471 212.379 96.997 213.173 97.1099C213.173 97.1099 214.199 98.9463 217.164 99.0847C218.017 99.1326 218.871 98.986 219.658 98.656C220.446 98.3259 221.148 97.8212 221.71 97.1803C221.71 97.1803 224.188 97.2415 225.188 98.3304C226.188 99.4193 230.976 108.618 231.075 115.193Z" fill="#0052B4"/>
<path d="M226.138 118.833C225.94 120.455 219.639 119.724 218.008 119.334C216.376 118.944 212.684 119.836 209.728 119.78C208.027 119.748 208.549 114.989 209.298 110.956C209.298 110.956 212.503 116.596 216.498 116.557C220.493 116.519 224.935 111.258 224.935 111.258C225.661 114.796 226.225 118.12 226.138 118.833Z" fill="#B5493F"/>
<path d="M226.618 112.821C226.618 112.821 220.575 117.209 217.793 118.537L218.259 120.294C218.259 120.294 226.916 118.57 230.974 115.089L226.618 112.821Z" fill="#0052B4"/>
<path d="M217.793 118.539C217.793 118.539 215.715 117.893 215.076 118.256C214.436 118.619 213.547 120.269 214.164 120.297C214.78 120.326 218.268 120.297 218.268 120.297L217.793 118.539Z" fill="#0052B4"/>
<path d="M214.423 95.9129C214.423 95.9129 215.812 98.6567 217.167 99.0888C217.167 99.0888 215.241 99.8204 212.434 97.0574C212.636 96.7102 212.926 96.4218 213.275 96.2209C213.624 96.0201 214.019 95.9139 214.423 95.9129Z" fill="#E6F1FF"/>
<path d="M209.848 108.256C208.893 110.166 207.91 112.184 207.674 112.82L205.638 113.896C205.495 113.838 205.381 113.726 205.32 113.586C204.707 112.357 209.848 108.256 209.848 108.256Z" fill="#B5493F"/>
<path d="M220.199 95.8908C220.199 95.8908 218.521 98.6572 217.166 99.086C217.166 99.086 219.348 99.973 222.156 97.2099C222.156 97.2156 221.629 95.9214 220.199 95.8908Z" fill="#E6F1FF"/>
<path d="M228.036 113.208C227.867 113.307 227.679 113.368 227.484 113.388L226.403 112.846C226.082 112.115 225.001 109.83 224.333 108.521C224.333 108.522 229.454 112.414 228.036 113.208Z" fill="#B5493F"/>
<path d="M207.673 112.821C207.673 112.821 213.716 117.209 216.498 118.537L216.032 120.294C216.032 120.294 207.375 118.57 203.318 115.089L207.673 112.821Z" fill="#FFB27D"/>
<path d="M216.499 118.539C216.499 118.539 218.576 117.893 219.216 118.256C219.856 118.619 220.745 120.269 220.128 120.297C219.511 120.326 216.024 120.297 216.024 120.297L216.499 118.539Z" fill="#FFB27D"/>
<path d="M209.288 113.865L208.282 114.746L205.689 117.015C204.252 116.902 203.217 115.192 203.217 115.192C203.724 114.377 204.497 113.783 205.269 113.36C206.077 112.924 206.944 112.608 207.844 112.421L209.288 113.865Z" fill="#E6F1FF"/>
<path d="M231.075 115.193C231.075 115.193 230.038 116.904 228.604 117.016L225.654 114.435L225.003 113.867L226.233 112.465C226.913 112.589 227.579 112.781 228.22 113.041C229.243 113.452 230.413 114.128 231.075 115.193Z" fill="#E6F1FF"/>
<path d="M228.22 113.041C228.22 113.041 226.834 114.26 225.654 114.435L225.003 113.867L226.232 112.465C226.913 112.589 227.579 112.781 228.22 113.041Z" fill="#C7DCF2"/>
<path d="M209.288 113.865L208.282 114.746C206.54 114.733 205.268 113.361 205.268 113.361C206.075 112.925 206.943 112.609 207.842 112.422L209.288 113.865Z" fill="#C7DCF2"/>
<path d="M216.971 99.0765C216.971 99.0331 216.984 98.9906 217.009 98.9546C217.033 98.9186 217.068 98.8905 217.108 98.8741C217.149 98.8576 217.193 98.8534 217.236 98.862C217.279 98.8706 217.318 98.8917 217.349 98.9225C217.38 98.9533 217.401 98.9925 217.409 99.0352C217.418 99.0778 217.413 99.122 217.397 99.1621C217.38 99.2023 217.351 99.2366 217.315 99.2607C217.279 99.2848 217.236 99.2977 217.192 99.2977C217.133 99.2974 217.077 99.274 217.036 99.2325C216.994 99.1911 216.971 99.135 216.971 99.0765Z" fill="#9923D0"/>
<path d="M216.745 104.718C216.746 104.636 216.771 104.555 216.818 104.487C216.864 104.418 216.93 104.365 217.007 104.334C217.084 104.303 217.169 104.295 217.25 104.312C217.332 104.328 217.406 104.368 217.465 104.427C217.523 104.486 217.563 104.56 217.579 104.641C217.595 104.722 217.586 104.806 217.554 104.883C217.522 104.959 217.468 105.024 217.399 105.07C217.33 105.116 217.249 105.14 217.166 105.14C217.054 105.14 216.947 105.095 216.868 105.016C216.789 104.937 216.745 104.83 216.745 104.718Z" fill="#A53D38"/>
<path d="M216.745 111.498C216.746 111.416 216.772 111.335 216.818 111.267C216.865 111.199 216.931 111.146 217.008 111.115C217.085 111.084 217.17 111.076 217.251 111.093C217.332 111.11 217.407 111.15 217.465 111.209C217.523 111.267 217.563 111.342 217.579 111.423C217.595 111.504 217.586 111.588 217.554 111.664C217.522 111.74 217.468 111.806 217.399 111.851C217.33 111.897 217.249 111.922 217.166 111.922C217.11 111.921 217.055 111.91 217.004 111.889C216.953 111.867 216.907 111.836 216.868 111.797C216.828 111.757 216.798 111.711 216.777 111.66C216.756 111.609 216.745 111.554 216.745 111.498Z" fill="#A53D38"/>
<path d="M131.611 79.8703C131.611 79.8703 126.376 78.7837 125.391 83.2731C124.574 86.9889 128.501 91.7721 128.501 91.7721H135.456C135.456 91.7721 143.228 78.9538 131.611 79.8703Z" fill="#1B2E59"/>
<path d="M147.238 151.471C147.214 151.473 147.19 151.473 147.166 151.471C147.076 151.475 146.987 151.449 146.914 151.397C146.841 151.345 146.787 151.27 146.762 151.184L142.194 131.53L141.862 130.098L143.425 130.03L143.935 132.709L147.459 151.198C147.463 151.23 147.461 151.263 147.452 151.295C147.443 151.327 147.428 151.356 147.407 151.382C147.387 151.407 147.361 151.428 147.332 151.444C147.302 151.459 147.27 151.468 147.238 151.471Z" fill="#E5BD9E"/>
<path d="M124.013 130.102L123.261 133.337L119.11 151.189C119.085 151.274 119.032 151.349 118.958 151.401C118.885 151.453 118.797 151.48 118.707 151.476C118.683 151.477 118.659 151.477 118.635 151.476C118.603 151.473 118.571 151.463 118.542 151.448C118.513 151.433 118.488 151.412 118.468 151.386C118.447 151.361 118.432 151.332 118.423 151.301C118.414 151.269 118.412 151.237 118.416 151.205L122.172 131.495L122.45 130.038L124.013 130.102Z" fill="#E5BD9E"/>
<path d="M124.013 130.101L123.261 133.336C123.238 132.965 123.128 132.604 122.938 132.283C122.749 131.962 122.487 131.69 122.172 131.49L122.45 130.033L124.013 130.101Z" fill="#CC9E7F"/>
<path d="M143.933 132.717C143.161 131.583 142.223 131.583 142.194 131.539L141.862 130.107L143.425 130.039L143.933 132.717Z" fill="#CC9E7F"/>
<path d="M143.534 130.242H120.906C119.787 130.242 118.88 129.339 118.88 128.226V126.609C118.88 125.496 119.787 124.593 120.906 124.593H143.534C144.653 124.593 145.56 125.496 145.56 126.609V128.226C145.56 129.339 144.653 130.242 143.534 130.242Z" fill="#C65447"/>
<path d="M140.143 117.948C139.474 114.233 137.521 110.008 137.521 110.008C138.94 104.087 137.491 97.4294 137.491 97.4294C136.71 97.2203 135.914 97.0687 135.11 96.9757C135.01 96.4471 134.723 94.858 134.601 93.489C134.587 93.3302 134.576 93.1748 134.566 93.024C134.542 92.6795 134.542 92.3339 134.566 91.9895L133.565 92.0553L129.447 92.3287L129.271 92.34C129.271 92.34 129.296 92.7064 129.303 93.261C129.315 94.2569 129.266 95.8494 128.908 96.9927C127.135 97.1753 125.936 97.4328 125.936 97.4328C124.775 97.629 125.024 104.812 127.19 110.396C128.189 112.966 125.366 116.944 125.366 117.95C125.366 118.956 140.386 119.29 140.143 117.948Z" fill="#FFB27D"/>
<path d="M134.598 93.4868C134.212 93.9405 133.23 94.9137 131.993 94.9353C130.376 94.9636 129.295 93.2588 129.295 93.2588C129.321 92.9451 129.369 92.6335 129.439 92.3265L133.557 92.0531C133.91 92.3574 134.246 92.6795 134.565 93.0184C134.573 93.1726 134.585 93.328 134.598 93.4868Z" fill="#EF9E67"/>
<path d="M131.961 93.9715C129.72 93.9715 127.886 92.1284 127.886 89.8769V86.4639C127.884 85.7365 128.172 85.038 128.686 84.5209C129.2 84.0038 129.899 83.7102 130.631 83.7042H133.104C133.835 83.7102 134.534 84.0038 135.048 84.5209C135.562 85.038 135.85 85.7365 135.848 86.4639V90.0697C135.849 91.0988 135.441 92.0867 134.713 92.8177C133.985 93.5486 132.996 93.9634 131.961 93.9715Z" fill="#FFB27D"/>
<path d="M120.883 124.595C120.883 124.595 123.619 118.217 126.135 116.971C128.651 115.724 138.641 116.831 140.142 117.949C141.642 119.066 143.562 124.595 143.562 124.595H120.883Z" fill="#22356B"/>
<path d="M123.385 124.595C123.385 124.595 124.363 120.769 126.539 120.602C128.716 120.435 131.618 122.458 132.65 121.913C133.682 121.369 135.652 120.003 137.481 120.351C139.31 120.7 142.062 124.595 142.062 124.595H123.385Z" fill="#1B2E59"/>
<path d="M133.141 148.697L130.546 148.731C130.546 148.731 129.331 144.574 127.986 139.723C127.862 139.269 127.733 138.809 127.607 138.345C126.496 134.3 125.368 130.007 124.816 127.357C124.683 126.722 124.588 126.148 124.532 125.626C124.01 121.072 126.051 120.694 126.54 120.603C127.083 120.504 130.416 118.966 132.279 124.913C132.907 126.916 133.8 132.435 133.465 137.592C133.142 142.548 133.141 148.697 133.141 148.697Z" fill="#FFB27D"/>
<path d="M139.21 137.879C138.129 143.516 136.918 148.857 136.918 148.857L133.907 148.56C133.907 148.56 133.715 143.77 133.253 138.488C133.216 138.068 133.22 137.643 133.205 137.217C133.058 133.208 132.953 129.062 133.015 126.486C133.17 120.157 135.681 120.279 136.233 120.308C136.785 120.336 140.38 119.607 140.839 125.819C140.988 127.84 140.152 132.971 139.21 137.879Z" fill="#FFB27D"/>
<path d="M127.984 139.722C127.86 139.269 127.731 138.808 127.604 138.344C126.494 134.3 125.365 130.006 124.813 127.357C124.681 126.722 124.585 126.148 124.529 125.626C124.586 125.814 128.246 137.751 131.908 138.638C134.258 139.207 130.8 139.549 127.984 139.722Z" fill="#EF9E67"/>
<path d="M133.252 138.487C133.236 138.067 133.219 137.642 133.204 137.217C133.057 133.207 132.952 129.062 133.014 126.486C133.014 126.486 133.764 137.41 137.49 138.247C139.952 138.802 136.125 138.652 133.252 138.487Z" fill="#EF9E67"/>
<path d="M139.207 137.878C138.593 141.079 137.938 144.182 137.486 146.272C137.144 147.86 136.915 148.859 136.915 148.859L133.723 148.613C133.723 148.613 133.446 143.769 133.464 137.588C133.893 137.785 134.869 137.996 136.83 137.981C137.499 137.976 138.286 137.946 139.207 137.878Z" fill="#E9F3FE"/>
<path d="M137.485 146.269C137.143 147.857 136.915 148.857 136.915 148.857L133.723 148.61C133.723 148.61 133.193 143.606 133.211 137.424C133.64 137.622 134.869 137.992 136.83 137.979C136.827 137.979 135.463 144.315 137.485 146.269Z" fill="#C7DCF2"/>
<path d="M137.129 150.54C137.129 150.667 137.129 150.785 137.129 150.888C137.128 150.944 137.115 150.999 137.092 151.05C137.069 151.101 137.036 151.147 136.994 151.185C136.953 151.223 136.904 151.253 136.851 151.271C136.798 151.29 136.742 151.298 136.686 151.295L133.607 151.096C133.498 151.089 133.395 151.039 133.322 150.958C133.249 150.876 133.211 150.769 133.217 150.66C133.253 150.021 133.396 149.392 133.639 148.799C133.663 148.741 133.7 148.689 133.747 148.647C133.795 148.606 133.851 148.576 133.912 148.559C135.476 148.154 136.434 148.559 136.777 148.761C136.823 148.787 136.863 148.822 136.896 148.863C136.928 148.905 136.952 148.952 136.965 149.003C137.083 149.507 137.138 150.023 137.129 150.54Z" fill="#9923D0"/>
<path d="M136.842 148.893C136.842 148.893 136.5 148.252 135.481 148.074C135.185 148.021 134.88 148.042 134.593 148.135C134.307 148.228 134.048 148.39 133.84 148.607L133.659 148.749C133.689 148.715 134.391 147.714 135.51 147.909C135.825 147.954 136.123 148.078 136.377 148.269C136.631 148.461 136.832 148.713 136.961 149.003L136.842 148.893Z" fill="#9923D0"/>
<path d="M137.126 150.54C137.126 150.667 137.126 150.785 137.126 150.888C137.125 150.944 137.112 150.999 137.089 151.05C137.066 151.101 137.033 151.147 136.991 151.185C136.95 151.223 136.901 151.252 136.848 151.271C136.795 151.29 136.739 151.298 136.683 151.295L133.604 151.095C133.495 151.089 133.392 151.039 133.319 150.958C133.246 150.876 133.208 150.769 133.214 150.66C133.225 150.464 133.246 150.269 133.277 150.076C133.277 150.076 133.438 150.787 135.312 150.883C136.44 150.94 136.923 150.72 137.126 150.54Z" fill="#22356B"/>
<path d="M133.14 148.696L130.517 149.114L129.848 149.227C129.848 149.227 129.091 143.765 127.605 138.35C129.51 138.551 131.436 138.291 133.217 137.591C133.43 143.11 133.14 148.696 133.14 148.696Z" fill="#E9F3FE"/>
<path d="M130.518 149.114L129.849 149.228C129.849 149.228 129.092 143.765 127.606 138.35C128.743 138.478 129.893 138.434 131.017 138.22C131.017 138.22 129.69 146.129 130.518 149.114Z" fill="#C7DCF2"/>
<path d="M133.638 150.161C133.665 150.286 133.688 150.4 133.707 150.501C133.718 150.556 133.718 150.613 133.706 150.667C133.695 150.722 133.673 150.774 133.641 150.82C133.609 150.866 133.568 150.906 133.521 150.936C133.473 150.966 133.421 150.986 133.365 150.996L130.316 151.47C130.208 151.487 130.098 151.46 130.009 151.397C129.92 151.333 129.86 151.237 129.842 151.13C129.811 150.936 129.789 150.741 129.778 150.546C129.75 150.103 129.775 149.658 129.853 149.221C129.865 149.159 129.89 149.1 129.927 149.049C129.965 148.998 130.013 148.956 130.069 148.927C131.509 148.193 132.532 148.382 132.91 148.503C132.961 148.518 133.007 148.543 133.048 148.577C133.088 148.61 133.122 148.651 133.146 148.698C133.369 149.164 133.534 149.655 133.638 150.161Z" fill="#9923D0"/>
<path d="M133.001 148.617C133.001 148.611 132.535 148.064 131.496 148.113C131.196 148.127 130.904 148.214 130.645 148.367C130.387 148.52 130.17 148.734 130.014 148.99L129.867 149.167C129.889 149.127 130.361 147.997 131.494 147.945C131.811 147.921 132.129 147.977 132.418 148.109C132.707 148.241 132.958 148.444 133.146 148.698L133.001 148.617Z" fill="#9923D0"/>
<path d="M133.638 150.161C133.665 150.286 133.688 150.401 133.707 150.502C133.718 150.556 133.718 150.613 133.706 150.668C133.695 150.722 133.673 150.774 133.641 150.82C133.609 150.867 133.568 150.906 133.521 150.936C133.473 150.966 133.421 150.987 133.365 150.996L130.316 151.47C130.208 151.487 130.098 151.461 130.009 151.397C129.92 151.333 129.86 151.237 129.842 151.13C129.811 150.936 129.789 150.741 129.778 150.546C129.778 150.546 130.087 151.206 131.938 150.886C133.053 150.702 133.478 150.382 133.638 150.161Z" fill="#22356B"/>
<path d="M145.788 115.193L142.197 113.39L141.118 112.848C140.797 112.117 139.716 109.832 139.048 108.523C139.253 109.421 139.455 110.348 139.643 111.259C140.38 114.794 140.939 118.121 140.852 118.833C140.654 120.455 134.347 119.725 132.722 119.335C131.096 118.944 127.398 119.837 124.442 119.78C122.741 119.749 123.263 114.989 124.012 110.957C124.19 109.991 124.384 109.064 124.562 108.256C123.606 110.166 122.623 112.184 122.387 112.821L120.351 113.897L118.042 115.119C118.037 115.109 118.033 115.099 118.032 115.088C117.893 114.362 120.256 100.683 123.383 98.3304C124.01 97.8322 124.733 97.4669 125.507 97.257C126.281 97.0471 127.091 96.997 127.885 97.1099C127.885 97.1099 128.911 98.9463 131.876 99.0847C132.729 99.1325 133.582 98.9858 134.37 98.6557C135.158 98.3257 135.859 97.821 136.421 97.1803C136.421 97.1803 138.899 97.2415 139.899 98.3304C140.899 99.4193 145.688 108.618 145.788 115.193Z" fill="#0052B4"/>
<path d="M140.856 118.833C140.657 120.455 134.351 119.724 132.725 119.334C131.099 118.944 127.402 119.836 124.446 119.78C122.745 119.748 123.267 114.989 124.016 110.956C124.016 110.956 127.221 116.596 131.216 116.557C135.211 116.519 139.653 111.258 139.653 111.258C140.38 114.796 140.942 118.12 140.856 118.833Z" fill="#B5493F"/>
<path d="M141.336 112.821C141.336 112.821 135.293 117.209 132.511 118.537L132.976 120.294C132.976 120.294 141.633 118.57 145.691 115.089L141.336 112.821Z" fill="#FFB27D"/>
<path d="M132.511 118.539C132.511 118.539 130.434 117.893 129.794 118.256C129.155 118.619 128.265 120.269 128.876 120.297C129.488 120.326 132.981 120.297 132.981 120.297L132.511 118.539Z" fill="#0052B4"/>
<path d="M129.136 95.9129C129.136 95.9129 130.527 98.6567 131.881 99.0888C131.881 99.0888 129.955 99.8204 127.148 97.0574C127.35 96.7102 127.639 96.4218 127.988 96.2209C128.337 96.0201 128.733 95.9139 129.136 95.9129Z" fill="#E6F1FF"/>
<path d="M124.562 108.256C123.606 110.166 122.624 112.184 122.388 112.82L120.351 113.896C120.209 113.838 120.095 113.726 120.033 113.586C119.421 112.357 124.562 108.256 124.562 108.256Z" fill="#B5493F"/>
<path d="M134.974 95.9129C134.974 95.9129 133.235 98.6567 131.88 99.0888C131.88 99.0888 134.154 99.8204 136.961 97.0574C136.76 96.7101 136.47 96.4216 136.121 96.2207C135.772 96.0199 135.377 95.9137 134.974 95.9129Z" fill="#E6F1FF"/>
<path d="M142.753 113.208C142.584 113.307 142.395 113.369 142.199 113.388L141.119 112.846C140.799 112.115 139.718 109.83 139.05 108.521C139.05 108.522 144.17 112.414 142.753 113.208Z" fill="#B5493F"/>
<path d="M122.39 112.821C122.39 112.821 128.433 117.209 131.215 118.537L130.75 120.294C130.75 120.294 122.093 118.57 118.035 115.089L122.39 112.821Z" fill="#FFB27D"/>
<path d="M131.213 118.539C131.213 118.539 133.29 117.893 133.93 118.256C134.569 118.619 135.459 120.269 134.842 120.297C134.225 120.326 130.737 120.297 130.737 120.297L131.213 118.539Z" fill="#FFB27D"/>
<path d="M124.005 113.865L122.999 114.746L120.406 117.015C118.969 116.902 117.934 115.192 117.934 115.192C118.441 114.377 119.214 113.783 119.986 113.36C120.794 112.924 121.661 112.608 122.56 112.421L124.005 113.865Z" fill="#E6F1FF"/>
<path d="M145.788 115.193C145.788 115.193 144.751 116.904 143.317 117.016L140.367 114.435L139.716 113.867L140.947 112.465C141.627 112.589 142.294 112.782 142.935 113.041C143.955 113.452 145.126 114.128 145.788 115.193Z" fill="#E6F1FF"/>
<path d="M142.937 113.041C142.937 113.041 141.55 114.26 140.37 114.435L139.719 113.867L140.949 112.466C141.63 112.589 142.296 112.782 142.937 113.041Z" fill="#C7DCF2"/>
<path d="M124.005 113.865L122.999 114.746C121.257 114.733 119.985 113.361 119.985 113.361C120.792 112.925 121.66 112.609 122.559 112.422L124.005 113.865Z" fill="#C7DCF2"/>
<path d="M131.688 99.0765C131.688 99.0331 131.701 98.9906 131.726 98.9546C131.75 98.9186 131.785 98.8905 131.825 98.8741C131.866 98.8576 131.91 98.8534 131.953 98.862C131.996 98.8706 132.035 98.8917 132.066 98.9225C132.097 98.9533 132.118 98.9925 132.126 99.0352C132.135 99.0778 132.13 99.122 132.113 99.1621C132.097 99.2023 132.068 99.2366 132.032 99.2607C131.996 99.2848 131.953 99.2977 131.909 99.2977C131.851 99.296 131.795 99.2721 131.754 99.231C131.713 99.1898 131.689 99.1346 131.688 99.0765Z" fill="#9923D0"/>
<path d="M131.462 104.718C131.463 104.636 131.488 104.555 131.535 104.487C131.581 104.418 131.647 104.365 131.724 104.334C131.801 104.303 131.886 104.295 131.967 104.312C132.048 104.328 132.123 104.368 132.182 104.427C132.24 104.486 132.28 104.56 132.296 104.641C132.312 104.722 132.303 104.806 132.271 104.883C132.239 104.959 132.185 105.024 132.116 105.07C132.047 105.116 131.966 105.14 131.883 105.14C131.771 105.14 131.664 105.095 131.585 105.016C131.506 104.937 131.462 104.83 131.462 104.718Z" fill="#A53D38"/>
<path d="M131.462 111.498C131.463 111.416 131.489 111.335 131.535 111.267C131.582 111.199 131.648 111.146 131.725 111.115C131.802 111.084 131.886 111.076 131.968 111.093C132.049 111.11 132.124 111.15 132.182 111.209C132.24 111.267 132.28 111.342 132.296 111.423C132.312 111.504 132.303 111.588 132.271 111.664C132.239 111.74 132.185 111.806 132.116 111.851C132.047 111.897 131.966 111.922 131.883 111.922C131.827 111.921 131.772 111.91 131.721 111.889C131.67 111.867 131.624 111.836 131.584 111.797C131.545 111.757 131.514 111.711 131.494 111.66C131.473 111.609 131.462 111.554 131.462 111.498Z" fill="#A53D38"/>
<path d="M126.56 84.9341C126.56 84.9341 121.602 85.4399 122.921 90.2651C124.24 95.0902 123.563 95.9171 123.563 95.9171C123.949 95.8956 124.314 95.7342 124.589 95.4634C124.589 95.4634 124.361 95.8286 123.5 97.184C121.684 100.05 126.309 101.729 126.309 101.729C126.309 101.729 125.571 99.837 126.824 99.1746C129.218 97.9065 130.227 94.6115 128.725 93.1551C125.281 89.8136 126.56 84.9341 126.56 84.9341Z" fill="#1B2E59"/>
<path d="M136.956 84.9341C136.956 84.9341 141.916 85.4399 140.597 90.2651C139.278 95.0902 139.954 95.9171 139.954 95.9171C139.567 95.8956 139.202 95.7342 138.927 95.4634C138.927 95.4634 139.156 95.8286 140.017 97.184C141.834 100.05 137.207 101.729 137.207 101.729C137.207 101.729 137.946 99.837 136.694 99.1746C134.3 97.9065 133.289 94.6115 134.792 93.1551C138.241 89.8136 136.956 84.9341 136.956 84.9341Z" fill="#1B2E59"/>
<path d="M127.887 87.3683C127.887 87.3683 130.578 87.653 131.477 87.0587C131.477 87.0587 132.068 85.2768 131.477 84.8117C131.477 84.8117 132.582 85.7679 132.376 87.0326C132.376 87.0326 134.053 86.9815 134.428 86.7751C134.428 86.7751 134.314 85.9743 134.093 85.6409C134.093 85.6409 134.67 86.2863 134.797 86.7513C134.797 86.7513 136.031 86.8806 136.287 86.411C136.544 85.9414 134.309 80.286 130.762 81.8661C127.215 83.4461 126.866 86.3872 127.887 87.3683Z" fill="#1B2E59"/>
<path d="M125.3 84.8221C125.3 84.8221 124.787 85.1307 124.821 85.4585C124.855 85.7863 126.066 86.9217 126.066 86.9217L125.3 84.8221Z" fill="#C65447"/>
<path d="M137.966 84.8221C137.966 84.8221 138.478 85.1307 138.443 85.4585C138.409 85.7863 137.2 86.9217 137.2 86.9217L137.966 84.8221Z" fill="#C65447"/>
<path d="M36.2891 80.8824C36.2891 80.8824 33.4012 79.2048 31.3865 80.3901C29.3719 81.5754 26.9137 88.9866 27.2911 90.5054C27.6685 92.0242 29.3069 93.163 29.3069 93.163C29.3069 93.163 29.0709 92.2646 29.3069 91.6374C29.3069 91.6374 29.5475 93.3648 30.8484 93.9059C32.1493 94.4469 37.0291 94.8462 38.0313 94.6023C39.1817 94.321 39.8737 93.9478 40.3606 92.6593C40.8474 91.3708 43.8574 79.7243 36.2891 80.8824Z" fill="#1B2E59"/>
<path d="M49.9128 151.471C49.8889 151.473 49.8648 151.473 49.8409 151.471C49.7511 151.475 49.6624 151.449 49.5892 151.397C49.516 151.345 49.4626 151.27 49.4373 151.184L44.8677 131.53L44.5359 130.098L46.0979 130.03L46.6086 132.709L50.1317 151.198C50.1361 151.23 50.1339 151.263 50.1252 151.294C50.1165 151.326 50.1015 151.355 50.081 151.381C50.0605 151.407 50.0351 151.428 50.0062 151.443C49.9772 151.459 49.9455 151.468 49.9128 151.471Z" fill="#E5BD9E"/>
<path d="M26.686 130.102L25.9347 133.337L21.7834 151.189C21.7582 151.275 21.7047 151.35 21.6315 151.402C21.5583 151.454 21.4697 151.48 21.3798 151.476C21.3559 151.477 21.3319 151.477 21.308 151.476C21.2755 151.473 21.244 151.463 21.2153 151.448C21.1866 151.433 21.1614 151.412 21.141 151.386C21.1207 151.361 21.1057 151.332 21.097 151.301C21.0882 151.269 21.0859 151.237 21.0902 151.205L24.8447 131.495L25.124 130.038L26.686 130.102Z" fill="#E5BD9E"/>
<path d="M26.686 130.101L25.9347 133.336C25.9118 132.965 25.8012 132.604 25.6118 132.283C25.4224 131.962 25.1596 131.69 24.8447 131.49L25.124 130.033L26.686 130.101Z" fill="#CC9E7F"/>
<path d="M46.6055 132.717C45.8325 131.583 44.8953 131.583 44.8656 131.539L44.5338 130.107L46.0958 130.039L46.6055 132.717Z" fill="#CC9E7F"/>
<path d="M46.2114 130.242H23.583C22.4641 130.242 21.557 129.339 21.557 128.226V126.609C21.557 125.496 22.4641 124.593 23.583 124.593H46.2114C47.3303 124.593 48.2374 125.496 48.2374 126.609V128.226C48.2374 129.339 47.3303 130.242 46.2114 130.242Z" fill="#C65447"/>
<path d="M42.8164 117.948C42.146 114.233 40.1941 110.008 40.1941 110.008C41.6147 104.087 40.1645 97.4294 40.1645 97.4294C39.3832 97.2203 38.5875 97.0687 37.7839 96.9757C37.6835 96.4471 37.3962 94.858 37.2742 93.489C37.2617 93.3302 37.2503 93.1748 37.24 93.024C37.2168 92.6795 37.2168 92.3339 37.24 91.9895L36.2401 92.0553L32.1208 92.3287L31.9463 92.34C31.9463 92.34 31.9714 92.7064 31.9783 93.261C31.9908 94.2569 31.9418 95.8494 31.5826 96.9927C29.8109 97.1753 28.6103 97.4328 28.6103 97.4328C27.4508 97.629 27.6982 104.812 29.8644 110.396C30.8621 112.966 28.0402 116.944 28.0402 117.95C28.0402 118.956 43.0582 119.29 42.8164 117.948Z" fill="#FFB27D"/>
<path d="M37.2706 93.4868C36.8841 93.9405 35.9093 94.9137 34.6666 94.9353C33.0487 94.9636 31.969 93.2588 31.969 93.2588C31.9945 92.9451 32.0421 92.6336 32.1115 92.3265L36.2308 92.0531C36.5823 92.3588 36.918 92.6821 37.2364 93.0218C37.2467 93.1726 37.2581 93.328 37.2706 93.4868Z" fill="#EF9E67"/>
<path d="M33.9789 93.9481C31.767 93.584 30.2541 91.4675 30.6155 89.2444L31.1628 85.8722C31.278 85.1548 31.6746 84.5121 32.2657 84.0853C32.8567 83.6585 33.5939 83.4824 34.3153 83.5958L36.7551 83.9962C37.4761 84.1208 38.1185 84.5235 38.5427 85.1167C38.9669 85.7099 39.1387 86.4457 39.0206 87.1642L38.4414 90.72C38.2799 91.7368 37.7191 92.6481 36.8822 93.2535C36.0453 93.8589 35.001 94.1087 33.9789 93.9481Z" fill="#FFB27D"/>
<path d="M33.0632 91.2204C33.0632 91.2204 33.0632 91.7682 34.363 92.0007C34.363 92.0007 35.4564 92.197 35.5613 91.6185C35.5613 91.6185 34.6138 90.9583 33.0632 91.2204Z" fill="white"/>
<path d="M23.5576 124.595C23.5576 124.595 26.2996 118.217 28.8102 116.971C31.3208 115.724 41.3176 116.831 42.818 117.949C44.3184 119.066 46.2384 124.595 46.2384 124.595H23.5576Z" fill="#22356B"/>
<path d="M26.0577 124.595C26.0577 124.595 27.036 120.769 29.2113 120.602C31.3867 120.435 34.2907 122.458 35.3225 121.913C36.3543 121.369 38.3256 120.003 40.1544 120.351C41.9832 120.7 44.7344 124.595 44.7344 124.595H26.0577Z" fill="#1B2E59"/>
<path d="M42.4703 137.427C42.4293 143.168 42.2058 148.641 42.2058 148.641L39.1924 148.898C39.1924 148.898 38.1343 144.225 36.724 139.114C36.61 138.709 36.5382 138.291 36.4458 137.874C35.5759 133.959 34.7208 129.902 34.3149 127.357C33.3218 121.105 35.813 120.766 36.3603 120.694C36.9076 120.621 40.312 119.246 41.8877 125.27C42.3996 127.227 42.5045 132.429 42.4703 137.427Z" fill="#FFB27D"/>
<path d="M36.7248 139.113C36.632 138.704 36.5393 138.29 36.4466 137.874C35.5767 133.958 34.7216 129.901 34.3157 127.357C34.3157 127.357 37.0326 137.961 40.8475 138.103C43.3695 138.198 39.5797 138.75 36.7248 139.113Z" fill="#EF9E67"/>
<path d="M42.4723 137.426C42.4495 140.685 42.3663 143.856 42.3001 145.991C42.25 147.615 42.2078 148.64 42.2078 148.64L39.0222 148.98C39.0222 148.98 37.873 144.269 36.7704 138.187C37.2265 138.301 38.2253 138.333 40.151 137.961C40.8111 137.834 41.5796 137.66 42.4723 137.426Z" fill="#E9F3FE"/>
<path d="M42.2991 145.988C42.2489 147.612 42.2067 148.637 42.2067 148.637L39.0212 148.977C39.0212 148.977 37.5937 144.154 36.4923 138.072C36.9484 138.185 38.2242 138.33 40.1499 137.959C40.1499 137.96 39.9561 144.44 42.2991 145.988Z" fill="#C7DCF2"/>
<path d="M42.7192 150.257C42.742 150.381 42.7614 150.497 42.7774 150.597C42.7862 150.652 42.7838 150.709 42.7702 150.763C42.7567 150.818 42.7323 150.869 42.6985 150.914C42.6646 150.959 42.6221 150.996 42.5734 151.024C42.5246 151.053 42.4707 151.071 42.4148 151.078L39.3524 151.445C39.2434 151.459 39.1335 151.429 39.0468 151.362C38.96 151.295 38.9035 151.196 38.8895 151.088C38.81 150.452 38.8362 149.808 38.967 149.18C38.9803 149.118 39.0078 149.06 39.0474 149.011C39.0869 148.961 39.1375 148.921 39.1951 148.894C40.6601 148.214 41.6749 148.441 42.0454 148.57C42.0951 148.587 42.1409 148.614 42.18 148.649C42.2192 148.684 42.2509 148.726 42.2734 148.773C42.4824 149.248 42.6321 149.746 42.7192 150.257Z" fill="#9923D0"/>
<path d="M42.1434 148.69C42.1434 148.69 41.6953 148.123 40.6555 148.133C40.354 148.136 40.0578 148.212 39.7933 148.356C39.5287 148.5 39.304 148.707 39.1391 148.958L38.9863 149.13C39.0091 149.092 39.5188 147.979 40.6544 147.967C40.9721 147.953 41.288 148.02 41.5723 148.162C41.8566 148.303 42.0999 148.515 42.2791 148.776L42.1434 148.69Z" fill="#9923D0"/>
<path d="M42.7192 150.256C42.742 150.381 42.7614 150.497 42.7774 150.596C42.7862 150.652 42.7838 150.708 42.7702 150.763C42.7567 150.817 42.7323 150.868 42.6985 150.913C42.6646 150.958 42.6221 150.996 42.5734 151.024C42.5246 151.052 42.4707 151.07 42.4148 151.077L39.3524 151.445C39.2434 151.458 39.1335 151.428 39.0468 151.361C38.96 151.294 38.9035 151.196 38.8895 151.087C38.8645 150.893 38.85 150.697 38.8462 150.501C38.8462 150.501 39.1324 151.173 40.9919 150.923C42.1161 150.776 42.5528 150.472 42.7192 150.256Z" fill="#22356B"/>
<path d="M31.0066 149.22L28.4983 148.549C28.4983 148.549 28.4447 144.216 28.4527 139.18C28.4527 138.709 28.4527 138.231 28.4527 137.75C28.4698 133.554 28.5348 129.114 28.7149 126.414C28.7582 125.766 28.8232 125.187 28.9064 124.67C29.627 120.143 31.6941 120.332 32.1889 120.377C32.7385 120.429 36.3618 119.852 36.5602 126.079C36.6275 128.177 36.0038 133.734 34.297 138.608C32.6587 143.299 31.0066 149.22 31.0066 149.22Z" fill="#FFB27D"/>
<path d="M28.4505 139.183C28.4505 138.712 28.4505 138.235 28.4505 137.754C28.4676 133.557 28.5326 129.117 28.7127 126.417C28.7561 125.769 28.821 125.191 28.9043 124.673C28.9043 124.87 29.2281 137.357 32.5162 139.203C34.63 140.385 31.2108 139.778 28.4505 139.183Z" fill="#EF9E67"/>
<path d="M31.0058 149.22L28.3675 148.91L27.6949 148.832C27.6949 148.832 28.4325 143.366 28.4565 137.75C29.5166 138.181 30.6358 138.45 31.7766 138.55C32.6323 138.603 33.4911 138.582 34.343 138.485C33.0649 143.864 31.0058 149.22 31.0058 149.22Z" fill="#E9F3FE"/>
<path d="M28.3654 148.91L27.6927 148.832C27.6927 148.832 28.4304 143.366 28.4543 137.75C29.5145 138.181 30.6337 138.45 31.7744 138.55C31.7744 138.55 28.3711 145.81 28.3654 148.91Z" fill="#C7DCF2"/>
<path d="M31.2036 150.688C31.2127 150.815 31.2184 150.932 31.2218 151.036C31.2241 151.092 31.2151 151.148 31.1952 151.201C31.1754 151.253 31.1452 151.301 31.1064 151.342C31.0676 151.382 31.021 151.415 30.9693 151.437C30.9176 151.459 30.862 151.471 30.8057 151.472H27.7204C27.6109 151.472 27.5058 151.429 27.4278 151.353C27.3497 151.276 27.3049 151.172 27.3031 151.063C27.3007 150.867 27.3091 150.67 27.3282 150.475C27.3674 150.033 27.4596 149.597 27.603 149.177C27.6232 149.118 27.6568 149.064 27.7013 149.019C27.7458 148.975 27.7999 148.941 27.8595 148.921C29.3942 148.414 30.3758 148.758 30.7316 148.933C30.7789 148.956 30.8213 148.988 30.8563 149.027C30.8913 149.065 30.9183 149.111 30.9356 149.16C31.0871 149.657 31.177 150.17 31.2036 150.688Z" fill="#9923D0"/>
<path d="M30.8115 149.064C30.8115 149.064 30.433 148.447 29.3989 148.337C29.0994 148.303 28.7962 148.344 28.5164 148.456C28.2367 148.568 27.9891 148.746 27.7958 148.977L27.6248 149.13C27.6522 149.093 28.2884 148.049 29.4171 148.17C29.7344 148.194 30.0404 148.298 30.3061 148.472C30.5718 148.647 30.7885 148.885 30.9358 149.166L30.8115 149.064Z" fill="#9923D0"/>
<path d="M31.2036 150.688C31.2127 150.815 31.2184 150.932 31.2218 151.036C31.2241 151.092 31.2151 151.148 31.1952 151.201C31.1754 151.253 31.1452 151.301 31.1064 151.342C31.0676 151.382 31.021 151.415 30.9693 151.437C30.9176 151.46 30.862 151.471 30.8057 151.472H27.7204C27.6109 151.472 27.5058 151.429 27.4278 151.353C27.3497 151.276 27.3049 151.172 27.3031 151.064C27.3007 150.867 27.3091 150.67 27.3282 150.475C27.3282 150.475 27.5346 151.176 29.4113 151.147C30.5446 151.133 31.0132 150.882 31.2036 150.688Z" fill="#22356B"/>
<path d="M47.3315 113.095L43.1518 113.163C42.8326 112.432 42.2739 109.997 41.7221 108.527C41.9273 109.425 42.1291 110.352 42.3172 111.263C43.0549 114.798 43.6136 118.125 43.5269 118.837C43.3285 120.459 37.0213 119.729 35.3954 119.339C33.7696 118.948 30.0733 119.841 27.1157 119.784C25.4158 119.753 25.9368 114.993 26.6859 110.961C26.8649 109.995 27.0576 109.068 27.2366 108.26C26.2811 110.17 25.8467 112.526 25.6153 113.163C25.6153 113.163 21.5325 112.897 21.5313 112.887C21.3934 112.162 22.9303 100.681 26.0577 98.3345C26.6847 97.8362 27.4076 97.4708 28.182 97.2609C28.9563 97.051 29.7656 97.001 30.5601 97.1141C30.5601 97.1141 31.5862 98.9504 34.5506 99.0888C35.404 99.1368 36.2572 98.9901 37.045 98.6601C37.8328 98.33 38.5344 97.8253 39.0963 97.1844C39.0963 97.1844 41.5738 97.2456 42.5749 98.3345C43.5759 99.4234 45.7901 103.329 47.3315 113.095Z" fill="#C65447"/>
<path d="M43.5277 118.833C43.3294 120.455 37.0221 119.724 35.3963 119.334C33.7704 118.944 30.0741 119.836 27.1166 119.78C25.4166 119.748 25.9377 114.989 26.6867 110.956C26.6867 110.956 29.8917 116.596 33.8867 116.557C37.8818 116.519 42.318 111.258 42.318 111.258C43.0557 114.796 43.6144 118.12 43.5277 118.833Z" fill="#B5493F"/>
<path d="M31.8126 95.9129C31.8126 95.9129 33.2024 98.6567 34.5569 99.0888C34.5569 99.0888 32.6312 99.8204 29.8242 97.0574C30.0257 96.71 30.3155 96.4215 30.6645 96.2206C31.0135 96.0197 31.4094 95.9136 31.8126 95.9129Z" fill="#E6F1FF"/>
<path d="M37.6534 95.9129C37.6534 95.9129 35.9147 98.6567 34.5614 99.0888C34.5614 99.0888 36.8348 99.8204 39.6418 97.0574C39.4401 96.7102 39.1503 96.4218 38.8013 96.2209C38.4524 96.0201 38.0566 95.9139 37.6534 95.9129Z" fill="#E6F1FF"/>
<path d="M34.3608 99.0765C34.3611 99.033 34.3743 98.9905 34.3988 98.9545C34.4232 98.9184 34.458 98.8904 34.4985 98.874C34.539 98.8575 34.5834 98.8534 34.6263 98.8621C34.6692 98.8708 34.7085 98.892 34.7392 98.9229C34.77 98.9538 34.7909 98.9931 34.7992 99.0359C34.8075 99.0786 34.8029 99.1228 34.7859 99.1629C34.769 99.2031 34.7405 99.2373 34.704 99.2613C34.6675 99.2853 34.6247 99.2979 34.5809 99.2977C34.5519 99.2976 34.5231 99.2917 34.4963 99.2805C34.4696 99.2693 34.4453 99.253 34.4248 99.2325C34.4044 99.2119 34.3882 99.1876 34.3773 99.1608C34.3663 99.1341 34.3607 99.1054 34.3608 99.0765Z" fill="#9923D0"/>
<path d="M34.135 104.718C34.1357 104.636 34.1609 104.555 34.2076 104.487C34.2542 104.418 34.3202 104.365 34.3971 104.334C34.474 104.303 34.5585 104.295 34.6399 104.312C34.7213 104.328 34.7959 104.368 34.8544 104.427C34.9129 104.486 34.9526 104.56 34.9686 104.641C34.9846 104.722 34.976 104.806 34.9441 104.883C34.9121 104.959 34.8582 105.024 34.7891 105.07C34.72 105.116 34.6388 105.14 34.5558 105.14C34.4438 105.14 34.3366 105.095 34.2577 105.016C34.1788 104.937 34.1347 104.83 34.135 104.718Z" fill="#A53D38"/>
<path d="M34.135 111.498C34.1359 111.416 34.1614 111.335 34.2082 111.267C34.2549 111.199 34.3209 111.146 34.3979 111.115C34.4748 111.084 34.5593 111.076 34.6406 111.093C34.7219 111.11 34.7965 111.15 34.8548 111.209C34.9132 111.267 34.9528 111.342 34.9687 111.423C34.9845 111.504 34.976 111.588 34.944 111.664C34.912 111.74 34.8581 111.806 34.789 111.851C34.7199 111.897 34.6388 111.922 34.5558 111.922C34.5002 111.921 34.4453 111.91 34.394 111.889C34.3428 111.867 34.2964 111.836 34.2573 111.797C34.2183 111.757 34.1874 111.711 34.1664 111.66C34.1454 111.609 34.1347 111.554 34.135 111.498Z" fill="#A53D38"/>
<path d="M46.5949 124.186L46.6063 123.006C46.6063 123.006 48.2276 112.987 47.1045 112.676C45.9815 112.366 43.8688 113.433 43.8688 113.433L44.5335 123.006C44.5223 123.226 44.4899 123.444 44.4366 123.658C44.4081 123.658 44.3796 123.67 44.3523 123.678C43.2497 123.993 43.9122 126.272 44.7342 126.311C45.3373 126.341 46.1172 125.432 46.6462 125.12C46.8754 124.984 46.8081 124.347 46.5949 124.186Z" fill="#FFB27D"/>
<path d="M43.1522 113.158C43.1522 113.158 42.8911 114.57 43.5353 114.777C44.1795 114.983 47.4699 115.086 47.6751 114.777C47.8803 114.467 47.5953 112.096 47.105 111.922C46.6148 111.747 43.4589 112.395 43.1522 113.158Z" fill="#B5493F"/>
<path d="M24.4163 123.677C24.3889 123.669 24.3604 123.664 24.3331 123.658C24.2798 123.444 24.2474 123.226 24.2362 123.006L24.9008 113.433C24.9008 113.433 22.787 112.366 21.664 112.676C20.541 112.986 22.1634 123.006 22.1634 123.006L22.1736 124.185C21.9604 124.346 21.8932 124.979 22.1235 125.12C22.6514 125.432 23.4312 126.34 24.0344 126.311C24.8564 126.271 25.5188 123.993 24.4163 123.677Z" fill="#FFB27D"/>
<path d="M25.6172 113.158C25.6172 113.158 25.8783 114.57 25.2341 114.777C24.59 114.983 21.2995 115.086 21.0943 114.777C20.8891 114.467 21.1752 112.096 21.6644 111.922C22.1535 111.747 25.3117 112.395 25.6172 113.158Z" fill="#B5493F"/>
<path d="M35.9754 84.4207C35.9754 84.4207 36.2262 86.6892 37.6856 87.5547C37.6856 87.5547 37.1691 86.1867 37.5214 85.6174C37.5214 85.6174 37.8156 88.1774 38.6889 89.1846C38.6889 89.1846 40.9555 84.3504 36.8898 83.4203C32.824 82.4902 30.8219 84.3844 30.5437 85.9349C30.3791 86.8835 30.4278 87.8566 30.6862 88.7842C30.6862 88.7842 31.6041 85.978 33.5366 85.4336C35.4691 84.8892 35.9754 84.4207 35.9754 84.4207Z" fill="#1B2E59"/>
<path d="M261.944 63.9223C261.944 63.9223 254.967 77.9621 254.077 80.209C253.734 81.0733 241.335 77.2441 241.335 77.2441C241.335 77.2441 240.281 76.3254 240.185 75.2977C240.161 75.0368 239.85 74.7533 239.395 74.4822L235.682 75.5484C236.051 76.4773 236.514 77.387 236.774 77.6207C237.313 78.1095 240.536 79.5251 240.536 79.5251C242.527 81.4783 254.91 86.503 256.016 85.9053C257.178 85.2769 262.549 75.5507 264.629 72.9827C266.708 70.4147 265.884 61.9963 261.944 63.9223Z" fill="#FFB27D"/>
<path d="M226.492 62.6331L222.739 63.6392L229.784 76.978L238.791 74.7969L246.325 72.0871L241.185 58.4409L233.909 64.0305L226.492 62.6331Z" fill="#A03732"/>
<path d="M238.792 74.5633L233.662 62.2136C233.662 62.2136 227.42 59.9779 223.4 62.648L229.955 75.8133C229.955 75.8133 233.477 73.1886 238.792 74.5633Z" fill="#E9F3FE"/>
<path d="M241.573 57.4324C236.32 57.1216 233.662 62.2133 233.662 62.2133L238.793 74.5631C240.399 71.7603 246.95 71.529 246.95 71.529L241.573 57.4324Z" fill="#C7DCF2"/>
<path d="M246.227 144.514C246.227 144.514 246.969 148.03 246.227 148.994C245.486 149.958 243.465 150.188 243.511 151.569H253.304C253.304 151.569 252.971 149.095 251.936 148.042C250.901 146.988 249.874 140.837 249.874 140.837L246.227 144.514Z" fill="#163560"/>
<path d="M259.848 144.514C259.848 144.514 260.59 148.03 259.848 148.994C259.105 149.958 257.086 150.188 257.132 151.569H266.926C266.926 151.569 266.593 149.095 265.557 148.042C264.522 146.988 263.495 140.837 263.495 140.837L259.848 144.514Z" fill="#163560"/>
<path d="M279.836 114.336C279.153 114.481 278.462 114.586 277.766 114.649C274.231 115.032 267.609 115.329 261.242 115.395C258.978 115.42 256.748 115.417 254.697 115.379H254.671C252.89 115.345 251.251 115.285 249.837 115.197C248.277 115.1 247.005 114.963 246.159 114.786C245.542 114.659 245.15 114.509 245.03 114.332C244.016 112.858 241.496 109.918 241.817 107.681C241.88 107.212 242.083 106.773 242.402 106.422C242.402 106.422 244.133 105.765 246.849 104.834C252.24 103 261.524 100.11 268.958 99.1741C273.347 98.6206 277.091 98.7476 279.008 100.177C285.822 105.256 284.178 113.274 279.836 114.336Z" fill="#B23636"/>
<path d="M264.611 142.55C263.54 144.881 260.005 144.996 260.005 144.996C259.2 143.156 258.452 141.401 257.762 139.731C252.957 128.125 250.756 120.456 249.87 115.411C249.857 115.338 249.846 115.27 249.835 115.199C248.458 107.137 250.5 105.91 250.5 105.91L250.623 105.885C252.304 105.534 254.057 105.857 255.5 106.784C257.935 108.322 259.786 111.434 261.173 115.211C261.194 115.271 261.217 115.334 261.239 115.397C263.024 120.333 264.025 126.368 264.513 131.504C265.054 137.192 264.964 141.779 264.611 142.55Z" fill="#892828"/>
<path d="M276.614 61.5393C276.614 61.5393 276.941 61.5768 277.433 61.6528C278.621 61.8501 280.766 62.3072 281.545 63.1205C282.647 64.2706 288.43 79.7623 288.128 82.0093C287.826 84.2562 281.351 87.7078 279.15 87.9732L276.614 61.5337V61.5393Z" fill="#0052B4"/>
<path d="M268.814 63.851C268.791 63.8703 268.832 67.1835 271.684 66.4712C273.557 66.0038 277.168 62.8778 276.481 61.3262C276.154 60.5889 274.323 58.8739 273.116 54.3573L272.79 54.5195L267.317 57.2542C267.317 57.2542 267.945 59.0452 268.416 60.7704C268.816 62.2109 269.101 63.606 268.814 63.851Z" fill="#F4A269"/>
<path d="M264.975 58.4234C264.975 58.4234 273.205 60.2881 274.285 55.1193C275.364 49.9505 277.154 46.7111 271.944 45.2989C266.734 43.8868 265.299 45.6392 264.521 47.2805C263.742 48.9217 262.862 57.7996 264.975 58.4234Z" fill="#FFB27D"/>
<path d="M281.543 106.776C281.543 106.776 276.517 110.896 276.81 113.746C277.103 116.596 272.837 113.179 272.837 113.179L274.781 106.778L281.543 106.776Z" fill="#A03732"/>
<path d="M271.382 55.3024C273.349 55.975 276.357 52.0924 277.219 49.8296C278.276 47.0586 275.851 41.5597 269.523 42.3628C268.247 42.5191 267.024 42.9608 265.944 43.6547C264.559 44.5621 260.874 46.9111 266.83 49.4178C269.066 50.3593 269.666 54.7159 271.382 55.3024Z" fill="#1C468A"/>
<path d="M272.121 114.336C270.648 114.698 266.306 115.016 261.176 115.212C259.102 115.29 256.896 115.35 254.697 115.382C254.689 115.383 254.68 115.383 254.671 115.382C253.051 115.405 251.432 115.418 249.872 115.411C248.83 115.411 247.82 115.398 246.844 115.377C247.234 116.457 247.586 117.588 247.904 118.752C250.651 128.806 250.823 141.223 250.218 142.538C249.146 144.869 245.61 144.982 245.61 144.982C242.29 137.383 239.977 131.229 238.39 126.255C232.856 108.924 236.11 105.899 236.11 105.899C236.11 105.899 238.96 104.136 243.172 103.057C251.001 101.053 262.854 97.7406 268.968 99.1822C269.897 99.3988 270.684 99.7278 271.3 100.186C273.201 101.6 274.44 103.249 275.149 104.9C276.98 109.189 275.252 113.57 272.121 114.336Z" fill="#A03732"/>
<path d="M283.663 105.198C283.232 105.803 282.498 106.333 281.546 106.776C274.732 109.969 258.42 102.904 259.199 98.175C259.473 96.5099 260.763 96.5202 261.77 93.8013C262.552 91.6894 263.114 89.7112 263.088 87.7762C263.08 86.9455 262.951 86.1203 262.706 85.3262C262.093 83.3526 261.529 80.1789 261.171 76.7966C260.563 71.0357 261.021 65.1966 262.39 63.1481C262.584 62.8588 273.841 59.6909 282.58 62.5503C282.58 62.5503 283.271 72.7507 281.274 83.3946C281.005 84.8135 281.132 86.2788 281.641 87.631C283.229 91.8459 286.362 101.412 283.663 105.198Z" fill="#0052B4"/>
<path d="M266.427 85.4728C267.605 81.7763 267.946 77.1927 265.55 72.4561C263.822 73.6106 262.333 75.0847 261.164 76.798C261.522 80.1804 262.085 83.354 262.699 85.3276C262.95 86.1424 263.079 86.9899 263.081 87.8423C263.081 87.8911 263.081 87.9387 263.081 87.9875C263.081 88.1009 263.081 88.2086 263.073 88.3198C263.073 88.3674 263.073 88.4151 263.073 88.4616C263.065 88.6068 263.054 88.7531 263.04 88.8983C263.04 88.9459 263.029 88.9936 263.025 89.0401C263.013 89.1535 263 89.2567 262.985 89.3656C262.978 89.4212 262.97 89.479 262.961 89.5335C262.941 89.6662 262.92 89.7977 262.897 89.9304C262.888 89.9792 262.878 90.028 262.869 90.0779C262.846 90.1913 262.822 90.3172 262.796 90.4363C262.783 90.4964 262.769 90.5565 262.756 90.6167C262.731 90.7301 262.705 90.8322 262.678 90.9411C262.666 90.991 262.654 91.0397 262.642 91.0897C262.604 91.236 262.564 91.3823 262.528 91.5297C262.511 91.5899 262.493 91.65 262.475 91.7112C262.446 91.8144 262.414 91.9188 262.382 92.0231L262.328 92.199C262.281 92.3487 262.232 92.4984 262.182 92.6527L262.131 92.8035C262.091 92.9169 262.051 93.0383 262.009 93.1563L261.951 93.3219C261.894 93.4818 261.837 93.6429 261.775 93.8062C260.768 96.5284 258.348 97.9122 258.355 99.2835C258.365 102.829 274.745 109.974 281.559 106.781C265.66 109.23 266.425 85.5726 266.427 85.4728Z" fill="#4395F2"/>
<path d="M263.606 46.9075C263.606 46.9075 264.465 53.1108 269.252 55.3657C269.252 55.3657 266.126 48.179 267.71 46.8077C269.293 45.4364 263.606 46.9075 263.606 46.9075Z" fill="#1C468A"/>
<path d="M268.328 52.159C268.328 52.159 269.149 50.4781 269.911 50.7979C270.674 51.1178 269.618 53.8355 269.113 53.8049C268.608 53.7742 268.328 52.159 268.328 52.159Z" fill="#FFB27D"/>
<path d="M267.369 72.8848C266.093 73.8239 263.896 78.8203 260.828 82.3354C260.823 82.343 260.818 82.3502 260.812 82.357C260.251 83.0067 259.636 83.6074 258.973 84.1525C253.875 88.2664 249.995 87.1526 249.995 87.1526C247.404 85.7155 246.575 82.7483 246.325 80.735C246.236 80.0526 246.202 79.3641 246.226 78.6763C246.226 78.6763 252.578 79.8412 253.232 79.7527C253.886 79.6642 260.353 64.599 261.232 63.7007C263.134 61.7645 270.93 61.2813 270.93 61.2813C272.993 60.4057 268.888 71.763 267.369 72.8848Z" fill="#0052B4"/>
<path d="M260.829 82.336C260.824 82.3436 260.819 82.3508 260.813 82.3575C260.252 83.0072 259.637 83.608 258.974 84.1531C253.876 88.267 249.996 87.1532 249.996 87.1532C247.405 85.7161 246.576 82.7488 246.326 80.7355C247.149 81.525 253.085 86.78 260.829 82.336Z" fill="#4395F2"/>
<path d="M288.637 62.1827C285.141 59.6171 281.441 56.4933 282.192 53.8097C283.934 47.5894 278.83 40.0421 273.527 42.2675C270.676 43.463 268.367 59.084 272.292 63.3828C271.944 62.5162 271.561 60.9838 271.403 58.2616C271.429 58.5304 271.787 61.9684 272.904 63.9329C278.624 71.5029 268.324 71.5869 272.485 78.4639C272.485 78.4639 272.839 80.8458 282.268 78.2449C283.93 77.793 285.419 76.8582 286.545 75.5602C287.332 74.646 288.048 73.5355 288.141 72.458C288.106 74.0258 287.62 75.5509 286.742 76.8532C289.615 75.8324 291.485 72.94 291.873 69.6212C292.17 67.1383 291.585 64.348 288.637 62.1827Z" fill="#1C468A"/>
<path d="M287.783 116.596H247.234C247.234 116.596 248.178 112.647 271.662 113.235C273.527 113.282 275.176 113.361 276.636 113.462C288.174 114.276 287.783 116.596 287.783 116.596Z" fill="#E5BD9E"/>
<path d="M256.9 152.059C261.617 130.961 260.404 118.02 260.398 117.857C260.387 117.532 261.064 117.237 261.425 117.227C261.785 117.216 263.422 117.131 263.61 117.409C263.856 117.773 264.807 133.721 257.778 152.059H256.9Z" fill="#A06B47"/>
<path d="M245.715 152.059C250.431 130.961 249.219 118.02 249.213 117.857C249.2 117.532 249.878 117.237 250.239 117.227C250.601 117.216 252.236 117.131 252.424 117.409C252.671 117.773 253.621 133.721 246.592 152.059H245.715Z" fill="#A06B47"/>
<path d="M288.394 117.226C288.395 117.392 288.33 117.551 288.213 117.67C288.096 117.788 287.937 117.856 287.77 117.858H246.999C246.917 117.858 246.835 117.842 246.76 117.81C246.685 117.778 246.616 117.731 246.56 117.672C246.473 117.584 246.413 117.473 246.389 117.351C246.365 117.23 246.377 117.105 246.424 116.99C246.47 116.876 246.55 116.778 246.652 116.708C246.754 116.638 246.875 116.599 246.999 116.597H287.77C287.852 116.597 287.933 116.614 288.009 116.646C288.085 116.677 288.153 116.724 288.21 116.783C288.328 116.9 288.394 117.06 288.394 117.226Z" fill="#CE9A78"/>
<path d="M277.889 116.596H247.231C247.231 116.596 248.177 112.647 271.734 113.235C273.605 113.282 275.26 113.361 276.724 113.462C276.651 113.955 276.529 115.561 277.889 116.596Z" fill="#D6A685"/>
<path d="M288.394 117.226C288.393 117.393 288.326 117.554 288.207 117.672C288.088 117.791 287.927 117.857 287.759 117.858H266.004C265.921 117.858 265.838 117.842 265.761 117.81C265.685 117.778 265.615 117.731 265.557 117.672C265.468 117.584 265.407 117.472 265.382 117.35C265.357 117.227 265.369 117.1 265.417 116.985C265.465 116.869 265.546 116.771 265.651 116.702C265.755 116.633 265.878 116.596 266.004 116.597H287.759C287.927 116.597 288.088 116.664 288.207 116.783C288.266 116.841 288.313 116.91 288.345 116.986C288.377 117.062 288.394 117.144 288.394 117.226Z" fill="#7C4F31"/>
<path d="M287.131 117.304H287.14C287.505 117.304 287.797 117.032 287.791 116.707C287.42 93.5798 296.32 75.7969 296.41 75.62C296.561 75.3239 296.532 74.6638 295.572 74.5787C294.734 74.5061 294.214 74.6922 294.064 74.9859C294.041 75.0302 292.055 79.2621 289.845 86.6177C287.811 93.3994 286.269 104.504 286.465 116.724C286.475 117.046 286.77 117.304 287.131 117.304Z" fill="#7C4F31"/>
<path d="M267.285 117.304H267.294C267.659 117.304 267.949 117.032 267.945 116.707C267.574 93.5798 276.474 75.7969 276.564 75.62C276.714 75.3239 276.685 74.6638 275.726 74.5787C274.888 74.5061 274.368 74.6922 274.218 74.9859C274.195 75.0302 272.209 79.2621 269.999 86.6177C267.967 93.3994 266.424 104.504 266.62 116.724C266.629 117.046 266.924 117.304 267.285 117.304Z" fill="#7C4F31"/>
<path d="M293.008 82.7232C293.157 82.7286 293.303 82.6828 293.421 82.5935C293.54 82.5042 293.623 82.3769 293.658 82.2332C293.72 81.9133 293.479 81.6093 293.119 81.5526C292.549 81.4653 279.05 79.4406 273.007 81.1296C272.665 81.2271 272.465 81.5572 272.575 81.8668C272.64 82.0223 272.76 82.1481 272.913 82.2195C273.067 82.2909 273.241 82.3026 273.403 82.2525C279.141 80.6475 292.76 82.6914 292.899 82.7118C292.935 82.7183 292.972 82.7221 293.008 82.7232Z" fill="#7C4F31"/>
<path d="M291.468 86.6178C291.616 86.6232 291.762 86.5774 291.881 86.4881C291.999 86.3988 292.083 86.2715 292.118 86.1278C292.179 85.8079 291.938 85.5039 291.578 85.4472C291.008 85.3599 277.508 83.3341 271.466 85.0241C271.119 85.1217 270.925 85.4518 271.034 85.7625C271.099 85.9178 271.22 86.0434 271.373 86.1145C271.526 86.1857 271.701 86.1973 271.862 86.1471C277.603 84.5409 291.219 86.586 291.358 86.6008C291.394 86.6091 291.431 86.6148 291.468 86.6178Z" fill="#7C4F31"/>
<path d="M291.22 152.059C286.504 130.961 287.716 118.02 287.723 117.857C287.735 117.532 287.057 117.237 286.697 117.227C286.337 117.216 284.701 117.131 284.513 117.409C284.265 117.773 283.315 133.721 290.344 152.059H291.22Z" fill="#7C4F31"/>
<path d="M272.837 152.059C268.121 130.707 269.333 117.605 269.339 117.439C269.351 117.11 268.674 116.812 268.313 116.802C267.951 116.792 266.316 116.704 266.127 116.986C265.881 117.354 264.931 133.498 271.96 152.059H272.837Z" fill="#7C4F31"/>
<path d="M230.305 75.5845L230.583 76.1618C230.583 76.1618 236.813 74.4774 238.792 74.5625C238.791 74.5625 234.373 73.097 230.305 75.5845Z" fill="#C7DCF2"/>
<path d="M238.792 74.563L245.93 71.9315L245.805 71.6185C245.805 71.6185 240.321 71.9315 238.792 74.563Z" fill="#ADC7E0"/>
<path d="M240.26 75.6644C240.26 75.6644 240.133 73.7759 239.014 73.0953C238.52 72.8299 238.115 72.628 237.841 72.4976C237.79 72.4741 237.733 72.4644 237.677 72.4696C237.62 72.4748 237.566 72.4947 237.52 72.5272C237.474 72.5597 237.437 72.6038 237.413 72.6549C237.39 72.7061 237.38 72.7625 237.385 72.8186C237.416 73.0782 237.537 73.319 237.727 73.4991C238.297 74.0731 238.445 75.0281 238.445 75.0281L240.26 75.6644Z" fill="#FFB27D"/>
</svg>
